<svg xmlns="http://www.w3.org/2000/svg" xmlns:xlink="http://www.w3.org/1999/xlink" width="500" zoomAndPan="magnify" viewBox="0 0 375 374.999991" height="500" preserveAspectRatio="xMidYMid meet" version="1.0"><defs><g/><clipPath id="054e9fc856"><path d="M 51.230469 37.5 L 342.582031 37.5 L 342.582031 328.851562 L 51.230469 328.851562 Z M 51.230469 37.5 " clip-rule="nonzero"/></clipPath><clipPath id="a866dc5582"><path d="M 196.90625 37.5 C 116.449219 37.5 51.230469 102.722656 51.230469 183.175781 C 51.230469 263.628906 116.449219 328.851562 196.90625 328.851562 C 277.359375 328.851562 342.582031 263.628906 342.582031 183.175781 C 342.582031 102.722656 277.359375 37.5 196.90625 37.5 Z M 196.90625 37.5 " clip-rule="nonzero"/></clipPath><clipPath id="c76febb596"><path d="M 0.230469 0.5 L 291.582031 0.5 L 291.582031 291.851562 L 0.230469 291.851562 Z M 0.230469 0.5 " clip-rule="nonzero"/></clipPath><clipPath id="278cbec866"><path d="M 145.90625 0.5 C 65.449219 0.5 0.230469 65.722656 0.230469 146.175781 C 0.230469 226.628906 65.449219 291.851562 145.90625 291.851562 C 226.359375 291.851562 291.582031 226.628906 291.582031 146.175781 C 291.582031 65.722656 226.359375 0.5 145.90625 0.5 Z M 145.90625 0.5 " clip-rule="nonzero"/></clipPath><clipPath id="3bb267425b"><rect x="0" width="292" y="0" height="292"/></clipPath><clipPath id="ef0b72d2d8"><path d="M 63.792969 90 L 213.792969 90 L 213.792969 211.851562 L 63.792969 211.851562 Z M 63.792969 90 " clip-rule="nonzero"/></clipPath><clipPath id="ba294f92bf"><path d="M 76 210 L 78 210 L 78 211.851562 L 76 211.851562 Z M 76 210 " clip-rule="nonzero"/></clipPath><clipPath id="b15a3d1467"><rect x="0" width="142" y="0" height="70"/></clipPath><clipPath id="4d186e9ebc"><path d="M 111.769531 97 L 261.769531 97 L 261.769531 218.917969 L 111.769531 218.917969 Z M 111.769531 97 " clip-rule="nonzero"/></clipPath><clipPath id="f20d5e3101"><path d="M 124 217 L 126 217 L 126 218.917969 L 124 218.917969 Z M 124 217 " clip-rule="nonzero"/></clipPath><clipPath id="925d2c7b44"><path d="M 174.96875 97 L 324.96875 97 L 324.96875 218.917969 L 174.96875 218.917969 Z M 174.96875 97 " clip-rule="nonzero"/></clipPath><clipPath id="4926497bb3"><path d="M 187 217 L 190 217 L 190 218.917969 L 187 218.917969 Z M 187 217 " clip-rule="nonzero"/></clipPath></defs><g clip-path="url(#054e9fc856)"><g clip-path="url(#a866dc5582)"><g transform="matrix(1, 0, 0, 1, 51, 37)"><g clip-path="url(#3bb267425b)"><g clip-path="url(#c76febb596)"><g clip-path="url(#278cbec866)"><path fill="#c0cfb2" d="M 0.230469 0.5 L 291.582031 0.5 L 291.582031 291.851562 L 0.230469 291.851562 Z M 0.230469 0.5 " fill-opacity="1" fill-rule="nonzero"/></g></g></g></g></g></g><g clip-path="url(#ef0b72d2d8)"><path fill="#000000" d="M 77.59375 210.777344 C 77.578125 210.746094 77.566406 210.726562 77.5625 210.699219 C 77.304688 209.378906 76.679688 208.382812 75.355469 207.847656 C 74.53125 207.519531 74.101562 206.8125 73.972656 205.878906 C 73.765625 204.371094 74.078125 202.988281 74.9375 201.785156 C 75.601562 200.847656 76.457031 200.046875 77.210938 199.167969 C 78.007812 198.238281 78.90625 197.367188 79.546875 196.335938 C 80.035156 195.546875 80.53125 194.925781 81.4375 194.695312 C 81.507812 194.679688 81.5625 194.632812 81.625 194.601562 C 82.9375 193.988281 82.964844 193.890625 82.082031 192.75 C 82.1875 192.660156 82.285156 192.5625 82.398438 192.484375 C 84.867188 190.804688 87.351562 189.152344 89.792969 187.433594 C 93.175781 185.058594 96.757812 183.105469 100.691406 181.785156 C 102.921875 181.035156 105.066406 180.058594 106.914062 178.535156 C 107.089844 178.390625 107.355469 178.292969 107.582031 178.289062 C 110.507812 178.226562 112.730469 176.8125 114.535156 174.640625 C 115.234375 173.800781 116.105469 173.269531 117.066406 172.808594 C 125.226562 168.914062 133.050781 164.445312 140.378906 159.125 C 140.820312 158.804688 141.257812 158.476562 141.773438 158.09375 C 139.132812 155.335938 136.589844 152.65625 135.097656 149.195312 C 135.386719 149.351562 135.601562 149.570312 135.804688 149.804688 C 136.9375 151.101562 138.046875 152.417969 139.195312 153.699219 C 141.777344 156.578125 144.765625 158.921875 148.246094 160.65625 C 151.761719 162.410156 155.246094 164.230469 158.707031 166.089844 C 159.589844 166.5625 160.394531 167.230469 161.121094 167.929688 C 162.007812 168.78125 162.542969 170.269531 162.5 171.324219 C 162.234375 170.878906 161.980469 170.503906 161.78125 170.105469 C 161.179688 168.894531 160.179688 168.394531 158.875 168.398438 C 157.925781 168.402344 156.976562 168.359375 156.027344 168.390625 C 155.140625 168.421875 154.257812 168.515625 153.375 168.585938 C 154.785156 169.273438 156.339844 169.25 157.753906 169.742188 C 157.746094 169.808594 157.738281 169.878906 157.730469 169.949219 C 146.441406 170.800781 135.15625 171.648438 123.871094 172.5 C 129.085938 172.574219 134.304688 172.632812 139.523438 172.675781 C 144.707031 172.722656 149.894531 172.75 155.078125 172.789062 C 155.082031 172.871094 155.085938 172.960938 155.085938 173.042969 C 146.640625 174.015625 138.191406 174.988281 129.742188 175.960938 C 129.746094 176.019531 129.753906 176.078125 129.757812 176.140625 L 142.496094 176.140625 C 142.246094 176.46875 141.960938 176.65625 141.652344 176.808594 C 137.78125 178.707031 133.90625 180.617188 130.015625 182.488281 C 129.632812 182.671875 129.136719 182.738281 128.714844 182.6875 C 128.042969 182.605469 127.5625 182.789062 127.140625 183.296875 C 126.058594 184.605469 124.671875 185.460938 123.054688 185.960938 C 122.519531 186.128906 121.992188 186.328125 121.488281 186.578125 C 119.867188 187.382812 119.46875 189.117188 120.589844 190.546875 C 120.957031 191.015625 121.40625 191.421875 121.871094 191.789062 C 122.476562 192.269531 123.117188 192.707031 123.769531 193.121094 C 125.40625 194.160156 126.671875 195.53125 127.632812 197.21875 C 128.433594 198.621094 129.324219 199.96875 130.171875 201.34375 C 130.21875 201.425781 130.234375 201.53125 130.300781 201.75 C 114.542969 202.964844 98.84375 204.175781 83.144531 205.386719 C 83.800781 205.457031 84.453125 205.480469 85.105469 205.453125 C 87.738281 205.34375 90.367188 205.214844 93 205.105469 C 97.035156 204.933594 101.070312 204.777344 105.105469 204.621094 C 110.15625 204.425781 115.210938 204.230469 120.265625 204.058594 C 125.179688 203.890625 130.09375 203.773438 135.007812 203.582031 C 135.980469 203.542969 136.957031 203.339844 137.910156 203.109375 C 138.660156 202.925781 138.785156 202.542969 138.457031 201.847656 C 138.070312 201.023438 137.484375 200.371094 136.617188 200.054688 C 135.546875 199.664062 134.9375 198.875 134.453125 197.886719 C 133.675781 196.304688 133.464844 194.601562 133.265625 192.890625 C 133.125 191.675781 133.074219 190.453125 132.976562 189.15625 C 133.855469 188.855469 134.644531 188.585938 135.433594 188.320312 C 137.074219 187.765625 137.085938 187.753906 136.828125 186.121094 C 136.824219 186.089844 136.84375 186.054688 136.878906 185.945312 C 138.3125 185.652344 139.789062 185.351562 141.257812 185.050781 C 148.304688 183.59375 155.328125 182.058594 162.15625 179.75 C 164.675781 178.898438 167.144531 177.875 169.597656 176.84375 C 171.332031 176.113281 172.371094 174.730469 172.738281 172.875 C 172.992188 171.585938 173.09375 170.277344 172.691406 169.011719 C 172.050781 167.007812 171.433594 164.984375 170.605469 163.054688 C 168.039062 157.058594 163.898438 152.285156 158.757812 148.367188 C 156.664062 146.777344 154.425781 145.378906 152.25 143.894531 C 151.914062 143.660156 151.519531 143.484375 151.308594 143.09375 C 153.453125 143.804688 155.253906 145.164062 157.195312 146.203125 C 159.085938 144.316406 161.039062 142.636719 162.320312 140.355469 C 162.871094 139.378906 163.734375 138.703125 164.773438 138.289062 C 165.488281 138.003906 166.214844 137.714844 166.964844 137.550781 C 169.90625 136.890625 172.859375 136.265625 175.8125 135.664062 C 178.863281 135.046875 181.660156 133.929688 183.933594 131.714844 C 183.988281 131.664062 184.085938 131.65625 184.320312 131.578125 C 183.273438 133.390625 181.738281 134.390625 180.039062 135.242188 C 180.285156 137.152344 181.097656 138.804688 182.011719 140.507812 C 177.335938 141.109375 172.808594 141.6875 168.285156 142.269531 C 168.289062 142.328125 168.296875 142.390625 168.296875 142.449219 L 183.769531 142.449219 C 183.976562 142.917969 184.152344 143.316406 184.347656 143.765625 C 176.59375 144.5 168.976562 145.21875 161.363281 145.941406 C 161.886719 146 162.414062 146 162.9375 146 C 166.695312 145.996094 170.457031 145.992188 174.210938 145.992188 C 177.867188 145.992188 181.519531 145.984375 185.171875 146 C 185.535156 146.003906 186.035156 146.019531 186.242188 146.242188 C 186.984375 147.050781 187.625 147.953125 188.417969 148.96875 C 180.957031 149.707031 173.710938 150.425781 166.460938 151.140625 C 166.925781 151.234375 167.382812 151.234375 167.839844 151.234375 C 175.320312 151.246094 182.804688 151.230469 190.285156 151.289062 C 192.144531 151.300781 193.753906 150.769531 195.132812 149.585938 C 196.222656 148.652344 197.320312 147.6875 198.234375 146.589844 C 200.144531 144.296875 201.988281 141.941406 203.753906 139.535156 C 205.96875 136.507812 208.382812 133.703125 211.609375 131.691406 C 212.023438 131.4375 212.378906 131.082031 212.75 130.757812 C 213.558594 130.054688 213.792969 129.203125 213.382812 128.199219 C 213.167969 127.679688 212.894531 127.175781 212.746094 126.640625 C 212.238281 124.796875 210.867188 124.164062 209.152344 123.96875 C 209.117188 123.964844 209.082031 123.953125 209.046875 123.949219 C 208.234375 123.84375 207.886719 124.019531 207.511719 124.738281 C 207.417969 124.921875 207.335938 125.113281 207.265625 125.265625 C 205.875 125.59375 205.660156 125.824219 205.519531 127.164062 C 205.480469 127.550781 205.421875 127.941406 205.464844 128.320312 C 205.648438 130.050781 204.964844 131.386719 203.683594 132.480469 C 203.257812 132.84375 202.871094 133.273438 202.40625 133.578125 C 201.085938 134.433594 199.726562 135.242188 198.382812 136.074219 C 196.746094 137.089844 195.113281 138.117188 193.472656 139.128906 C 193.15625 139.324219 192.816406 139.484375 192.367188 139.722656 C 192.15625 138.894531 191.941406 138.195312 191.808594 137.480469 C 191.304688 134.769531 190.496094 132.160156 189.078125 129.777344 C 188.679688 129.109375 188.597656 128.449219 188.617188 127.679688 C 188.691406 124.808594 188.53125 121.972656 186.691406 119.542969 C 186.636719 119.472656 186.648438 119.355469 186.628906 119.257812 C 188.851562 118.765625 190.359375 120.050781 191.773438 121.363281 C 192.527344 120.867188 192.546875 120.871094 193.050781 119.753906 C 193.382812 119.011719 193.765625 118.371094 194.667969 118.363281 C 194.769531 118.089844 194.796875 117.785156 194.953125 117.671875 C 195.148438 117.527344 195.457031 117.546875 195.726562 117.492188 C 195.820312 117.042969 195.90625 116.644531 195.992188 116.226562 C 196.195312 116.214844 196.332031 116.1875 196.464844 116.203125 C 198.027344 116.367188 198.046875 116.335938 197.753906 114.726562 C 197.609375 113.941406 197.328125 113.164062 197.546875 112.304688 C 198.28125 112.1875 198.414062 111.628906 198.542969 111.011719 C 198.679688 110.367188 198.910156 109.738281 199.128906 109.109375 C 199.335938 108.515625 199.628906 107.945312 199.800781 107.34375 C 199.957031 106.804688 200.171875 106.410156 200.71875 106.164062 C 201.550781 105.785156 201.878906 105.054688 201.769531 104.167969 C 201.707031 103.691406 201.609375 103.175781 201.363281 102.773438 C 200.855469 101.9375 200.316406 101.09375 199.652344 100.382812 C 196.675781 97.214844 192.828125 96.347656 188.699219 96.566406 C 186.320312 96.691406 183.964844 97.160156 181.601562 97.472656 C 178.300781 97.90625 175.003906 98.339844 171.707031 98.773438 C 174.871094 98.878906 178.027344 98.851562 181.179688 98.882812 C 184.339844 98.917969 187.5 98.601562 190.65625 98.734375 C 190.664062 98.816406 190.671875 98.902344 190.675781 98.984375 C 185.453125 99.691406 180.226562 100.394531 175 101.101562 C 177.550781 101.121094 180.089844 101.046875 182.675781 101.121094 C 182.367188 102.324219 181.976562 103.394531 181.839844 104.496094 C 181.664062 105.910156 181.15625 107.433594 182.625 108.65625 C 182.035156 109.269531 181.539062 109.855469 180.96875 110.359375 C 180.417969 110.847656 179.71875 110.96875 178.992188 110.910156 C 178.570312 110.875 178.285156 110.707031 178.152344 110.261719 C 177.519531 108.179688 176.164062 106.621094 174.402344 105.445312 C 172.695312 104.304688 171.203125 102.992188 169.902344 101.386719 C 168.546875 99.714844 166.742188 98.496094 164.941406 97.332031 C 163.128906 96.152344 161.539062 94.746094 160.113281 93.121094 C 159.402344 92.308594 158.566406 91.59375 157.75 90.882812 C 157.199219 90.402344 156.519531 90.210938 155.785156 90.285156 C 155.085938 90.351562 154.394531 90.464844 153.695312 90.519531 C 150.757812 90.753906 147.816406 90.960938 144.875 91.195312 C 140.785156 91.523438 136.691406 91.878906 132.597656 92.199219 C 127.800781 92.578125 123.003906 92.925781 118.207031 93.296875 C 113.898438 93.621094 109.597656 93.972656 105.292969 94.316406 C 102.457031 94.539062 99.628906 94.757812 96.796875 94.984375 C 96.796875 95.019531 96.800781 95.050781 96.800781 95.085938 C 115.578125 95.171875 134.347656 95.261719 153.125 95.351562 C 153.128906 95.4375 153.132812 95.527344 153.132812 95.613281 C 140.21875 96.640625 127.289062 97.429688 114.371094 98.507812 L 137.265625 98.507812 C 137.273438 98.628906 137.292969 98.675781 137.273438 98.691406 C 137.140625 98.804688 137.007812 98.910156 136.867188 99.015625 C 134.617188 100.734375 132.054688 101.707031 129.316406 102.332031 C 127.195312 102.8125 125.117188 103.457031 123.027344 104.050781 C 122.128906 104.300781 121.546875 104.90625 121.515625 105.855469 C 121.457031 107.503906 121.351562 109.167969 121.488281 110.808594 C 121.664062 112.882812 123.125 113.613281 125 112.707031 C 125.722656 112.355469 126.421875 111.960938 127.09375 111.609375 C 128.425781 112.3125 129.015625 112.257812 130.105469 111.332031 C 130.453125 111.039062 130.816406 110.738281 131.078125 110.371094 C 131.917969 109.203125 132.75 108.023438 133.507812 106.804688 C 133.867188 106.230469 134.285156 105.871094 134.925781 105.65625 C 136.257812 105.214844 137.554688 104.679688 138.882812 104.226562 C 140.574219 103.652344 142.257812 103.03125 143.984375 102.59375 C 145.609375 102.179688 147.304688 102.027344 148.945312 101.648438 C 150.511719 101.289062 152.054688 100.808594 153.597656 100.335938 C 155.253906 99.828125 155.976562 100.023438 156.925781 101.449219 C 157.410156 102.179688 157.863281 102.941406 158.21875 103.738281 C 158.519531 104.402344 158.933594 104.550781 159.621094 104.523438 C 161.199219 104.453125 162.78125 104.472656 164.359375 104.484375 C 164.757812 104.488281 165.15625 104.585938 165.554688 104.644531 C 165.546875 104.695312 165.539062 104.742188 165.53125 104.792969 C 157.574219 105.539062 149.617188 106.285156 141.660156 107.03125 C 141.664062 107.101562 141.664062 107.171875 141.664062 107.238281 L 160.183594 107.238281 C 161.21875 109.566406 162.6875 111.488281 164.222656 113.371094 C 165.070312 114.414062 165.421875 115.664062 165.488281 116.988281 C 165.542969 118.066406 165.429688 119.117188 164.878906 120.101562 C 164.859375 118.390625 164.945312 116.6875 164.316406 115.054688 C 163.652344 113.347656 162.1875 112.3125 161.054688 110.921875 C 159.578125 112.339844 158.199219 113.714844 157.019531 115.359375 C 158.164062 115.90625 159.40625 115.964844 160.421875 116.660156 C 133.894531 117.472656 107.363281 118.28125 80.832031 119.09375 C 93.085938 119.152344 105.339844 119.148438 117.589844 119.15625 C 129.859375 119.164062 142.121094 119.183594 154.492188 119.203125 C 154.21875 119.933594 154.007812 120.5 153.773438 121.125 C 156.804688 121.542969 159.734375 121.65625 162.621094 122.089844 C 162.617188 122.171875 162.613281 122.253906 162.609375 122.332031 C 143.160156 123.152344 123.710938 123.976562 104.265625 124.792969 C 119.726562 124.667969 135.179688 124.738281 150.773438 124.773438 C 150.542969 125.179688 150.410156 125.40625 150.265625 125.660156 C 153.117188 125.984375 155.929688 125.851562 158.710938 126.152344 C 158.707031 126.234375 158.707031 126.3125 158.707031 126.394531 C 139.148438 127.195312 119.585938 128 100.027344 128.804688 C 115.207031 128.917969 130.382812 128.890625 145.558594 128.945312 C 145.589844 129.039062 145.613281 129.132812 145.644531 129.230469 C 142.851562 130.992188 140.0625 132.753906 137.0625 134.644531 C 142.644531 134.71875 147.972656 134.789062 153.300781 134.863281 C 153.304688 134.9375 153.308594 135.007812 153.3125 135.082031 C 152.941406 135.140625 152.570312 135.234375 152.199219 135.25 C 150.761719 135.324219 149.324219 135.375 147.882812 135.429688 C 141.953125 135.648438 136.019531 135.851562 130.089844 136.082031 C 122.824219 136.359375 115.5625 136.664062 108.300781 136.949219 C 102.046875 137.195312 95.792969 137.425781 89.542969 137.667969 C 89.542969 137.683594 89.542969 137.695312 89.542969 137.710938 L 132.363281 137.710938 C 132.207031 137.9375 132.148438 138.066406 132.054688 138.15625 C 130.214844 139.9375 128.976562 142.066406 128.414062 144.570312 C 128.285156 145.148438 127.921875 145.160156 127.480469 145.175781 C 125.726562 145.242188 123.972656 145.3125 122.222656 145.386719 C 115.835938 145.664062 109.453125 145.957031 103.066406 146.222656 C 95.804688 146.527344 88.539062 146.800781 81.277344 147.097656 C 79.238281 147.183594 77.195312 147.289062 75.152344 147.386719 C 75.152344 147.433594 75.152344 147.476562 75.15625 147.523438 L 126.378906 147.523438 C 125.710938 148.308594 125.371094 149.144531 124.320312 149.203125 C 122.464844 149.3125 120.605469 149.480469 118.75 149.613281 C 115.597656 149.84375 112.445312 150.050781 109.296875 150.296875 C 104.890625 150.640625 100.484375 151.019531 96.953125 151.308594 C 104.578125 151.308594 113.078125 151.308594 121.578125 151.308594 C 121.75 151.308594 121.925781 151.324219 122.101562 151.339844 C 122.125 151.34375 122.144531 151.386719 122.164062 151.417969 C 122.179688 151.445312 122.183594 151.476562 122.222656 151.585938 C 121.703125 152.003906 121.164062 152.453125 120.621094 152.886719 C 117.902344 155.050781 115.160156 157.191406 112.460938 159.390625 C 109.933594 161.449219 107.878906 163.949219 106.160156 166.707031 C 105.703125 167.441406 105.15625 167.695312 104.390625 167.765625 C 102.121094 167.976562 99.839844 168.136719 97.671875 168.941406 C 97.445312 169.027344 97.1875 169.027344 96.941406 169.050781 C 93.582031 169.332031 90.226562 169.613281 86.867188 169.878906 C 83.296875 170.15625 79.726562 170.398438 76.15625 170.679688 C 74.058594 170.847656 71.96875 171.054688 69.875 171.242188 C 74.003906 171.136719 78.132812 171.132812 82.261719 171.140625 C 86.375 171.148438 90.488281 171.117188 94.851562 171.175781 C 94.402344 171.652344 94.121094 171.910156 93.878906 172.207031 C 93.390625 172.8125 92.804688 173.121094 92.003906 173.171875 C 89.828125 173.304688 87.664062 173.507812 85.492188 173.675781 C 82.558594 173.902344 79.621094 174.121094 76.683594 174.339844 C 81.574219 174.507812 86.464844 174.347656 91.523438 174.523438 C 89.542969 176.8125 87.703125 178.925781 85.875 181.054688 C 85.566406 181.414062 85.179688 181.464844 84.746094 181.492188 C 82.507812 181.648438 80.265625 181.820312 78.023438 181.992188 C 74.734375 182.246094 71.445312 182.503906 68.15625 182.761719 C 67.097656 182.847656 66.046875 182.933594 64.992188 183.023438 C 64.996094 183.074219 64.996094 183.128906 64.996094 183.179688 L 83.761719 183.179688 C 81.757812 185.296875 79.644531 186.941406 77.421875 188.527344 C 76.402344 187.699219 75.507812 187.984375 74.660156 188.742188 C 74.34375 189.023438 74 189.273438 73.667969 189.535156 C 72.972656 190.089844 72.203125 190.476562 71.300781 190.601562 C 70.640625 190.691406 69.988281 190.855469 69.335938 190.976562 C 67.480469 191.328125 66.5625 193.082031 66.917969 194.691406 C 67.105469 195.542969 67.414062 196.375 67.738281 197.1875 C 68.050781 197.964844 68.4375 198.722656 68.816406 199.472656 C 69.554688 200.945312 69.601562 202.421875 68.957031 203.949219 C 68.597656 204.785156 68.273438 205.644531 68.023438 206.523438 C 67.605469 208.007812 67.871094 209.308594 69.238281 210.234375 C 69.527344 210.429688 69.804688 210.644531 70.078125 210.867188 C 70.210938 210.980469 70.3125 211.136719 70.503906 211.359375 C 68.167969 211.492188 65.980469 211.617188 63.792969 211.742188 C 64.25 211.808594 64.707031 211.808594 65.164062 211.808594 C 69.308594 211.789062 73.453125 211.761719 77.597656 211.734375 C 77.570312 211.40625 77.570312 211.09375 77.59375 210.777344 Z M 77.59375 210.777344 " fill-opacity="1" fill-rule="nonzero"/></g><path fill="#000000" d="M 188.082031 96.59375 C 188.082031 96.59375 182.375 98.242188 182.675781 101.105469 C 182.976562 104.019531 188.492188 103.410156 188.796875 103.511719 C 189.101562 103.613281 190.722656 104.070312 191.074219 103.511719 C 191.429688 102.957031 191.933594 101.738281 191.933594 100.625 C 191.933594 99.507812 192.339844 98.191406 191.425781 97.886719 C 190.519531 97.578125 188.082031 96.59375 188.082031 96.59375 Z M 188.082031 96.59375 " fill-opacity="1" fill-rule="nonzero"/><path fill="#000000" d="M 137.277344 98.6875 C 138.332031 98.289062 154.558594 89.640625 156.15625 90.253906 C 157.75 90.867188 156.15625 96.59375 156.15625 96.59375 C 156.15625 96.59375 151.746094 98.628906 150.988281 98.6875 C 150.226562 98.746094 145.671875 98.6875 145.671875 98.6875 Z M 137.277344 98.6875 " fill-opacity="1" fill-rule="nonzero"/><path fill="#000000" d="M 158.222656 103.730469 L 161.566406 109.773438 C 161.566406 109.773438 159.839844 113.457031 158.222656 113.832031 C 161.238281 115.804688 164.882812 122.878906 164.882812 122.878906 C 164.882812 122.878906 169.742188 124.625 170.65625 122.269531 C 171.566406 119.910156 172.097656 114.511719 171.566406 112.765625 C 171.039062 111.015625 168.148438 106.679688 168 106.222656 C 167.847656 105.765625 165.273438 102.878906 165 102.726562 C 164.730469 102.574219 163.746094 101.28125 162.835938 101.128906 C 161.917969 100.976562 158.222656 103.730469 158.222656 103.730469 Z M 158.222656 103.730469 " fill-opacity="1" fill-rule="nonzero"/><path fill="#000000" d="M 157.523438 114.683594 C 157.523438 114.683594 145.386719 130.359375 145.304688 129.429688 C 145.519531 130.253906 158.730469 131.46875 160.023438 131.46875 C 161.316406 131.46875 164.503906 130.859375 166.023438 128.578125 C 167.542969 126.300781 171.109375 119.832031 170.273438 118.617188 C 169.441406 117.402344 169.59375 115.957031 167.390625 115.195312 C 165.183594 114.4375 157.523438 114.683594 157.523438 114.683594 Z M 157.523438 114.683594 " fill-opacity="1" fill-rule="nonzero"/><path fill="#000000" d="M 138.679688 133.609375 C 138.679688 133.609375 138.648438 133.628906 138.585938 133.667969 C 137.8125 134.136719 132.652344 137.28125 132.367188 137.691406 C 132.058594 138.136719 141.519531 140.871094 143.953125 140.871094 C 146.378906 140.871094 151.695312 140.261719 153.46875 139.503906 C 155.238281 138.742188 158.875 139.199219 158.222656 135.449219 C 157.566406 131.699219 159.207031 130.414062 156.605469 130.679688 C 154.007812 130.949219 153.988281 130.378906 153.824219 130.644531 C 153.660156 130.910156 138.679688 133.609375 138.679688 133.609375 Z M 138.679688 133.609375 " fill-opacity="1" fill-rule="nonzero"/><path fill="#000000" d="M 140.84375 158.78125 C 140.84375 158.78125 145.292969 156.339844 145.332031 155.828125 C 145.371094 155.320312 140.613281 148.121094 139.851562 147.871094 C 139.09375 147.617188 133.070312 145.941406 133.019531 146.195312 C 132.96875 146.449219 133.828125 148.78125 133.828125 149.59375 C 133.828125 150.402344 134.738281 152.632812 135.144531 154.054688 C 135.546875 155.476562 140.84375 158.78125 140.84375 158.78125 Z M 140.84375 158.78125 " fill-opacity="1" fill-rule="nonzero"/><path fill="#000000" d="M 159.34375 144.074219 L 153.871094 149.445312 C 153.871094 149.445312 145.871094 144.441406 145.871094 144.078125 C 145.871094 143.714844 147.136719 139.203125 147.644531 139.203125 C 148.152344 139.203125 153.570312 139.050781 154.480469 139.203125 C 155.386719 139.355469 158.273438 140.46875 158.296875 140.878906 C 158.328125 141.28125 159.34375 144.074219 159.34375 144.074219 Z M 159.34375 144.074219 " fill-opacity="1" fill-rule="nonzero"/><path fill="#000000" d="M 180.152344 135.894531 C 180.066406 135.414062 179.421875 131.472656 179.421875 131.472656 L 187.355469 128.503906 C 187.355469 128.503906 186.636719 129.53125 186.710938 130.214844 C 186.785156 130.898438 187.203125 135.457031 186.972656 135.726562 C 186.746094 135.996094 184.46875 137.097656 183.859375 137.023438 C 183.253906 136.945312 180.152344 135.894531 180.152344 135.894531 Z M 180.152344 135.894531 " fill-opacity="1" fill-rule="nonzero"/><path fill="#000000" d="M 141.179688 177.03125 L 163.820312 164.320312 L 165.527344 168.769531 C 165.527344 168.769531 166.664062 172.53125 164.957031 173.789062 C 163.25 175.042969 157.441406 178.351562 154.710938 178.464844 C 151.976562 178.578125 145.332031 179.148438 145.332031 179.148438 Z M 141.179688 177.03125 " fill-opacity="1" fill-rule="nonzero"/><g clip-path="url(#ba294f92bf)"><path fill="#000000" d="M 77.558594 210.699219 L 78 211.714844 L 76.632812 211.714844 C 76.632812 211.714844 76.707031 210.992188 76.785156 210.972656 C 76.859375 210.957031 77.558594 210.699219 77.558594 210.699219 Z M 77.558594 210.699219 " fill-opacity="1" fill-rule="nonzero"/></g><g transform="matrix(1, 0, 0, 1, 129, 211)"><g clip-path="url(#b15a3d1467)"><g fill="#000000" fill-opacity="1"><g transform="translate(1.45212, 53.625298)"><g><path d="M 13.234375 0 L 19.375 0 L 15.453125 -20.234375 C 16.628906 -21.023438 17.488281 -22.28125 18.03125 -24 C 18.582031 -25.726562 18.859375 -27.632812 18.859375 -29.71875 C 18.859375 -33.65625 18.035156 -36.644531 16.390625 -38.6875 C 14.742188 -40.738281 12.082031 -41.765625 8.40625 -41.765625 L 2.265625 -41.765625 L 2.265625 0 L 8.40625 0 L 8.40625 -17.609375 L 10.0625 -17.609375 Z M 8.40625 -23.296875 L 8.40625 -35.6875 C 8.820312 -35.6875 9.296875 -35.644531 9.828125 -35.5625 C 10.359375 -35.488281 10.851562 -35.242188 11.3125 -34.828125 C 11.757812 -34.453125 12.144531 -33.835938 12.46875 -32.984375 C 12.789062 -32.128906 12.953125 -30.96875 12.953125 -29.5 C 12.953125 -28.019531 12.789062 -26.867188 12.46875 -26.046875 C 12.144531 -25.234375 11.757812 -24.617188 11.3125 -24.203125 C 10.851562 -23.828125 10.359375 -23.582031 9.828125 -23.46875 C 9.296875 -23.351562 8.820312 -23.296875 8.40625 -23.296875 Z M 8.40625 -23.296875 "/></g></g></g><g fill="#000000" fill-opacity="1"><g transform="translate(21.967326, 53.625298)"><g><path d="M 18.578125 -41.765625 L 12.453125 -41.765625 L 12.453125 -8.578125 C 12.453125 -7.898438 12.375 -7.390625 12.21875 -7.046875 C 12.101562 -6.628906 11.898438 -6.269531 11.609375 -5.96875 C 11.328125 -5.664062 10.925781 -5.515625 10.40625 -5.515625 C 9.90625 -5.515625 9.503906 -5.664062 9.203125 -5.96875 C 8.640625 -6.613281 8.359375 -7.484375 8.359375 -8.578125 L 8.359375 -41.765625 L 2.21875 -41.765625 L 2.21875 -8.578125 C 2.289062 -6.835938 2.628906 -5.320312 3.234375 -4.03125 C 3.503906 -3.46875 3.828125 -2.921875 4.203125 -2.390625 C 4.585938 -1.859375 5.0625 -1.382812 5.625 -0.96875 C 6.800781 -0.0195312 8.394531 0.453125 10.40625 0.453125 C 12.375 0.453125 13.941406 -0.0195312 15.109375 -0.96875 C 15.679688 -1.382812 16.164062 -1.859375 16.5625 -2.390625 C 16.957031 -2.921875 17.289062 -3.46875 17.5625 -4.03125 C 18.164062 -5.320312 18.503906 -6.835938 18.578125 -8.578125 Z M 18.578125 -41.765625 "/></g></g></g><g fill="#000000" fill-opacity="1"><g transform="translate(42.766675, 53.625298)"><g><path d="M 8.75 -21.765625 L 14.71875 0 L 20.171875 0 L 20.171875 -41.765625 L 14.546875 -41.765625 L 14.546875 -18.078125 L 14.203125 -18.078125 L 13.703125 -20 L 7.734375 -41.765625 L 2.265625 -41.765625 L 2.265625 0 L 7.90625 0 L 7.90625 -23.703125 L 8.234375 -23.703125 Z M 8.75 -21.765625 "/></g></g></g><g fill="#000000" fill-opacity="1"><g transform="translate(65.214053, 53.625298)"><g><path d="M 8.75 -21.765625 L 14.71875 0 L 20.171875 0 L 20.171875 -41.765625 L 14.546875 -41.765625 L 14.546875 -18.078125 L 14.203125 -18.078125 L 13.703125 -20 L 7.734375 -41.765625 L 2.265625 -41.765625 L 2.265625 0 L 7.90625 0 L 7.90625 -23.703125 L 8.234375 -23.703125 Z M 8.75 -21.765625 "/></g></g></g><g fill="#000000" fill-opacity="1"><g transform="translate(87.661431, 53.625298)"><g><path d="M 2.265625 -41.765625 L 2.265625 0 L 8.40625 0 L 8.40625 -41.765625 Z M 2.265625 -41.765625 "/></g></g><g transform="translate(98.345248, 53.625298)"><g><path d="M 8.75 -21.765625 L 14.71875 0 L 20.171875 0 L 20.171875 -41.765625 L 14.546875 -41.765625 L 14.546875 -18.078125 L 14.203125 -18.078125 L 13.703125 -20 L 7.734375 -41.765625 L 2.265625 -41.765625 L 2.265625 0 L 7.90625 0 L 7.90625 -23.703125 L 8.234375 -23.703125 Z M 8.75 -21.765625 "/></g></g></g><g fill="#000000" fill-opacity="1"><g transform="translate(120.792626, 53.625298)"><g><path d="M 12.109375 -26.765625 L 18.234375 -26.765625 L 18.234375 -33.1875 C 18.160156 -34.894531 17.820312 -36.390625 17.21875 -37.671875 C 16.957031 -38.242188 16.625 -38.800781 16.21875 -39.34375 C 15.820312 -39.894531 15.34375 -40.378906 14.78125 -40.796875 C 14.207031 -41.210938 13.53125 -41.550781 12.75 -41.8125 C 11.976562 -42.082031 11.082031 -42.21875 10.0625 -42.21875 C 9.039062 -42.21875 8.128906 -42.082031 7.328125 -41.8125 C 6.535156 -41.550781 5.851562 -41.210938 5.28125 -40.796875 C 4.71875 -40.378906 4.242188 -39.894531 3.859375 -39.34375 C 3.484375 -38.800781 3.160156 -38.242188 2.890625 -37.671875 C 2.285156 -36.390625 1.945312 -34.894531 1.875 -33.1875 L 1.875 -8.578125 C 1.800781 -6.878906 2.03125 -5.363281 2.5625 -4.03125 C 2.78125 -3.46875 3.070312 -2.921875 3.4375 -2.390625 C 3.800781 -1.859375 4.226562 -1.382812 4.71875 -0.96875 C 5.25 -0.507812 5.863281 -0.160156 6.5625 0.078125 C 7.257812 0.328125 8.101562 0.453125 9.09375 0.453125 C 10.070312 0.453125 10.96875 0.226562 11.78125 -0.21875 C 12.601562 -0.675781 13.296875 -1.265625 13.859375 -1.984375 L 14.609375 0 L 18.234375 0 L 18.234375 -20.796875 L 9.65625 -20.796875 L 9.65625 -15.625 L 12.109375 -15.625 L 12.109375 -8.0625 C 12.109375 -7.382812 12.03125 -6.875 11.875 -6.53125 C 11.757812 -6.113281 11.5625 -5.753906 11.28125 -5.453125 C 11 -5.148438 10.59375 -5 10.0625 -5 C 9.5625 -5 9.160156 -5.148438 8.859375 -5.453125 C 8.296875 -6.097656 8.015625 -6.96875 8.015625 -8.0625 L 8.015625 -33.1875 C 8.015625 -33.789062 8.085938 -34.300781 8.234375 -34.71875 C 8.347656 -35.101562 8.546875 -35.453125 8.828125 -35.765625 C 9.117188 -36.085938 9.53125 -36.25 10.0625 -36.25 C 10.59375 -36.25 11.007812 -36.097656 11.3125 -35.796875 C 11.84375 -35.148438 12.109375 -34.28125 12.109375 -33.1875 Z M 12.109375 -26.765625 "/></g></g></g></g></g><g clip-path="url(#4d186e9ebc)"><path fill="#000000" d="M 125.574219 217.84375 C 125.554688 217.8125 125.542969 217.789062 125.539062 217.765625 C 125.28125 216.441406 124.65625 215.449219 123.332031 214.914062 C 122.511719 214.585938 122.082031 213.878906 121.949219 212.945312 C 121.746094 211.4375 122.058594 210.054688 122.914062 208.847656 C 123.582031 207.914062 124.433594 207.109375 125.1875 206.234375 C 125.984375 205.304688 126.886719 204.433594 127.523438 203.402344 C 128.011719 202.613281 128.507812 201.992188 129.417969 201.761719 C 129.484375 201.746094 129.539062 201.695312 129.605469 201.667969 C 130.917969 201.050781 130.941406 200.953125 130.058594 199.816406 C 130.167969 199.726562 130.265625 199.625 130.378906 199.550781 C 132.84375 197.867188 135.332031 196.21875 137.773438 194.5 C 141.152344 192.125 144.734375 190.171875 148.667969 188.851562 C 150.898438 188.097656 153.042969 187.125 154.890625 185.601562 C 155.066406 185.457031 155.335938 185.359375 155.5625 185.351562 C 158.488281 185.292969 160.707031 183.875 162.511719 181.707031 C 163.210938 180.863281 164.085938 180.332031 165.042969 179.875 C 173.207031 175.980469 181.03125 171.511719 188.355469 166.191406 C 188.800781 165.871094 189.238281 165.539062 189.75 165.160156 C 187.109375 162.402344 184.566406 159.722656 183.074219 156.261719 C 183.363281 156.414062 183.582031 156.636719 183.78125 156.867188 C 184.914062 158.167969 186.027344 159.480469 187.171875 160.765625 C 189.757812 163.644531 192.746094 165.988281 196.222656 167.722656 C 199.742188 169.476562 203.222656 171.296875 206.6875 173.152344 C 207.570312 173.625 208.371094 174.296875 209.097656 174.996094 C 209.984375 175.847656 210.519531 177.335938 210.480469 178.390625 C 210.214844 177.941406 209.957031 177.570312 209.757812 177.167969 C 209.15625 175.960938 208.15625 175.460938 206.851562 175.460938 C 205.902344 175.464844 204.953125 175.425781 204.007812 175.457031 C 203.121094 175.484375 202.234375 175.582031 201.351562 175.652344 C 202.765625 176.335938 204.316406 176.316406 205.734375 176.808594 C 205.722656 176.875 205.714844 176.941406 205.707031 177.015625 C 194.417969 177.867188 183.136719 178.714844 171.847656 179.566406 C 177.0625 179.640625 182.28125 179.699219 187.5 179.742188 C 192.6875 179.785156 197.871094 179.816406 203.054688 179.855469 C 203.058594 179.9375 203.0625 180.027344 203.066406 180.109375 C 194.617188 181.082031 186.167969 182.050781 177.71875 183.027344 C 177.726562 183.085938 177.730469 183.144531 177.734375 183.207031 L 190.476562 183.207031 C 190.222656 183.53125 189.9375 183.71875 189.628906 183.871094 C 185.757812 185.773438 181.882812 187.679688 177.996094 189.550781 C 177.613281 189.738281 177.113281 189.804688 176.691406 189.753906 C 176.023438 189.667969 175.539062 189.855469 175.121094 190.363281 C 174.035156 191.671875 172.648438 192.523438 171.03125 193.027344 C 170.5 193.191406 169.96875 193.394531 169.46875 193.640625 C 167.84375 194.449219 167.445312 196.179688 168.570312 197.613281 C 168.933594 198.078125 169.382812 198.488281 169.847656 198.855469 C 170.453125 199.335938 171.09375 199.773438 171.746094 200.1875 C 173.382812 201.226562 174.652344 202.597656 175.609375 204.285156 C 176.410156 205.6875 177.300781 207.03125 178.148438 208.410156 C 178.199219 208.488281 178.210938 208.597656 178.277344 208.8125 C 162.523438 210.03125 146.820312 211.242188 131.121094 212.453125 C 131.777344 212.523438 132.429688 212.546875 133.082031 212.519531 C 135.714844 212.410156 138.34375 212.277344 140.976562 212.167969 C 145.011719 212 149.046875 211.839844 153.082031 211.6875 C 158.136719 211.492188 163.1875 211.292969 168.242188 211.121094 C 173.15625 210.953125 178.070312 210.835938 182.988281 210.648438 C 183.960938 210.609375 184.9375 210.402344 185.886719 210.175781 C 186.636719 209.992188 186.761719 209.605469 186.4375 208.914062 C 186.046875 208.089844 185.464844 207.4375 184.597656 207.121094 C 183.527344 206.726562 182.914062 205.941406 182.429688 204.953125 C 181.652344 203.371094 181.441406 201.667969 181.242188 199.957031 C 181.101562 198.742188 181.054688 197.519531 180.957031 196.21875 C 181.832031 195.921875 182.621094 195.648438 183.410156 195.382812 C 185.050781 194.832031 185.0625 194.816406 184.808594 193.1875 C 184.800781 193.152344 184.824219 193.117188 184.855469 193.011719 C 186.289062 192.714844 187.765625 192.417969 189.238281 192.113281 C 196.28125 190.660156 203.308594 189.121094 210.132812 186.816406 C 212.65625 185.964844 215.121094 184.941406 217.578125 183.910156 C 219.308594 183.179688 220.351562 181.796875 220.714844 179.941406 C 220.96875 178.652344 221.070312 177.339844 220.671875 176.078125 C 220.03125 174.074219 219.414062 172.050781 218.585938 170.121094 C 216.019531 164.121094 211.875 159.347656 206.734375 155.433594 C 204.644531 153.839844 202.402344 152.445312 200.230469 150.957031 C 199.890625 150.726562 199.5 150.550781 199.285156 150.160156 C 201.433594 150.867188 203.230469 152.226562 205.171875 153.269531 C 207.066406 151.378906 209.019531 149.703125 210.296875 147.421875 C 210.847656 146.445312 211.710938 145.769531 212.753906 145.351562 C 213.46875 145.066406 214.195312 144.78125 214.941406 144.613281 C 217.882812 143.957031 220.835938 143.328125 223.789062 142.730469 C 226.84375 142.113281 229.636719 140.996094 231.910156 138.78125 C 231.964844 138.726562 232.066406 138.722656 232.296875 138.644531 C 231.25 140.457031 229.714844 141.457031 228.015625 142.304688 C 228.261719 144.214844 229.078125 145.867188 229.988281 147.574219 C 225.3125 148.175781 220.785156 148.753906 216.265625 149.335938 C 216.265625 149.394531 216.273438 149.457031 216.277344 149.515625 L 231.746094 149.515625 C 231.953125 149.984375 232.128906 150.382812 232.328125 150.832031 C 224.570312 151.5625 216.957031 152.285156 209.339844 153.003906 C 209.863281 153.0625 210.390625 153.0625 210.914062 153.0625 C 214.671875 153.058594 218.433594 153.058594 222.191406 153.058594 C 225.84375 153.058594 229.496094 153.050781 233.148438 153.066406 C 233.511719 153.070312 234.015625 153.082031 234.21875 153.304688 C 234.960938 154.117188 235.601562 155.019531 236.398438 156.03125 C 228.933594 156.769531 221.6875 157.492188 214.441406 158.207031 C 214.902344 158.300781 215.363281 158.300781 215.816406 158.300781 C 223.300781 158.3125 230.78125 158.296875 238.261719 158.355469 C 240.121094 158.367188 241.734375 157.832031 243.109375 156.652344 C 244.199219 155.714844 245.300781 154.753906 246.214844 153.65625 C 248.121094 151.359375 249.964844 149.007812 251.730469 146.601562 C 253.949219 143.570312 256.359375 140.769531 259.585938 138.757812 C 260 138.5 260.355469 138.148438 260.726562 137.824219 C 261.535156 137.121094 261.769531 136.269531 261.359375 135.261719 C 261.144531 134.746094 260.875 134.238281 260.726562 133.707031 C 260.21875 131.863281 258.84375 131.230469 257.128906 131.035156 C 257.09375 131.03125 257.0625 131.015625 257.027344 131.015625 C 256.210938 130.90625 255.867188 131.085938 255.492188 131.804688 C 255.394531 131.984375 255.316406 132.175781 255.246094 132.332031 C 253.851562 132.660156 253.636719 132.890625 253.5 134.230469 C 253.460938 134.613281 253.402344 135.007812 253.445312 135.386719 C 253.628906 137.113281 252.941406 138.453125 251.660156 139.542969 C 251.234375 139.910156 250.851562 140.339844 250.386719 140.640625 C 249.0625 141.5 247.703125 142.304688 246.363281 143.136719 C 244.722656 144.15625 243.089844 145.183594 241.453125 146.195312 C 241.132812 146.390625 240.792969 146.546875 240.34375 146.789062 C 240.136719 145.957031 239.917969 145.257812 239.785156 144.546875 C 239.28125 141.832031 238.472656 139.226562 237.058594 136.84375 C 236.660156 136.175781 236.574219 135.515625 236.59375 134.746094 C 236.667969 131.875 236.507812 129.039062 234.667969 126.609375 C 234.613281 126.539062 234.625 126.417969 234.605469 126.320312 C 236.828125 125.828125 238.335938 127.117188 239.75 128.429688 C 240.507812 127.929688 240.527344 127.9375 241.027344 126.816406 C 241.359375 126.074219 241.746094 125.4375 242.644531 125.429688 C 242.746094 125.15625 242.773438 124.851562 242.933594 124.734375 C 243.125 124.59375 243.4375 124.613281 243.703125 124.558594 C 243.796875 124.105469 243.882812 123.707031 243.96875 123.289062 C 244.171875 123.28125 244.308594 123.253906 244.441406 123.269531 C 246.007812 123.433594 246.027344 123.402344 245.730469 121.792969 C 245.585938 121.007812 245.304688 120.230469 245.523438 119.371094 C 246.257812 119.253906 246.390625 118.691406 246.519531 118.078125 C 246.65625 117.433594 246.886719 116.804688 247.105469 116.175781 C 247.3125 115.582031 247.605469 115.011719 247.777344 114.410156 C 247.933594 113.871094 248.152344 113.476562 248.695312 113.230469 C 249.527344 112.851562 249.859375 112.117188 249.746094 111.234375 C 249.6875 110.753906 249.585938 110.242188 249.339844 109.839844 C 248.832031 109.003906 248.296875 108.160156 247.628906 107.449219 C 244.65625 104.277344 240.808594 103.410156 236.675781 103.632812 C 234.300781 103.757812 231.941406 104.226562 229.578125 104.539062 C 226.28125 104.972656 222.984375 105.40625 219.683594 105.839844 C 222.851562 105.945312 226.003906 105.917969 229.15625 105.949219 C 232.316406 105.980469 235.476562 105.664062 238.636719 105.796875 C 238.640625 105.882812 238.648438 105.964844 238.65625 106.050781 C 233.429688 106.757812 228.203125 107.457031 222.980469 108.164062 C 225.53125 108.1875 228.070312 108.113281 230.65625 108.1875 C 230.34375 109.390625 229.953125 110.460938 229.816406 111.5625 C 229.644531 112.972656 229.136719 114.5 230.601562 115.71875 C 230.015625 116.335938 229.515625 116.921875 228.945312 117.425781 C 228.394531 117.910156 227.695312 118.035156 226.96875 117.976562 C 226.550781 117.941406 226.265625 117.773438 226.128906 117.324219 C 225.496094 115.242188 224.140625 113.6875 222.382812 112.511719 C 220.675781 111.371094 219.179688 110.058594 217.878906 108.453125 C 216.527344 106.777344 214.71875 105.5625 212.921875 104.394531 C 211.105469 103.214844 209.515625 101.8125 208.09375 100.1875 C 207.382812 99.371094 206.542969 98.660156 205.726562 97.949219 C 205.175781 97.46875 204.496094 97.277344 203.761719 97.347656 C 203.066406 97.417969 202.375 97.53125 201.675781 97.585938 C 198.734375 97.820312 195.792969 98.027344 192.855469 98.261719 C 188.761719 98.589844 184.667969 98.945312 180.574219 99.265625 C 175.78125 99.640625 170.980469 99.992188 166.1875 100.363281 C 161.875 100.683594 157.574219 101.039062 153.269531 101.378906 C 150.4375 101.605469 147.609375 101.824219 144.773438 102.046875 C 144.773438 102.082031 144.777344 102.117188 144.777344 102.152344 C 163.554688 102.238281 182.328125 102.328125 201.101562 102.417969 C 201.105469 102.503906 201.109375 102.589844 201.113281 102.679688 C 188.199219 103.707031 175.265625 104.496094 162.347656 105.574219 L 185.242188 105.574219 C 185.25 105.695312 185.269531 105.742188 185.253906 105.753906 C 185.121094 105.867188 184.984375 105.976562 184.84375 106.082031 C 182.59375 107.800781 180.035156 108.769531 177.292969 109.394531 C 175.175781 109.878906 173.09375 110.523438 171.003906 111.113281 C 170.105469 111.367188 169.527344 111.96875 169.492188 112.921875 C 169.4375 114.570312 169.328125 116.234375 169.46875 117.875 C 169.640625 119.949219 171.105469 120.675781 172.980469 119.769531 C 173.699219 119.421875 174.398438 119.027344 175.070312 118.671875 C 176.402344 119.375 176.992188 119.324219 178.085938 118.398438 C 178.429688 118.101562 178.796875 117.800781 179.058594 117.4375 C 179.894531 116.265625 180.726562 115.089844 181.484375 113.871094 C 181.84375 113.296875 182.261719 112.933594 182.902344 112.722656 C 184.234375 112.28125 185.535156 111.742188 186.859375 111.292969 C 188.550781 110.714844 190.234375 110.097656 191.960938 109.65625 C 193.589844 109.242188 195.28125 109.089844 196.921875 108.714844 C 198.488281 108.351562 200.03125 107.875 201.574219 107.402344 C 203.234375 106.890625 203.953125 107.089844 204.902344 108.515625 C 205.386719 109.242188 205.839844 110.007812 206.199219 110.804688 C 206.5 111.46875 206.914062 111.617188 207.597656 111.585938 C 209.175781 111.519531 210.757812 111.539062 212.339844 111.550781 C 212.734375 111.550781 213.132812 111.652344 213.53125 111.710938 C 213.523438 111.757812 213.519531 111.808594 213.507812 111.855469 C 205.550781 112.605469 197.59375 113.347656 189.636719 114.097656 C 189.640625 114.164062 189.640625 114.238281 189.644531 114.304688 L 208.160156 114.304688 C 209.195312 116.628906 210.667969 118.554688 212.199219 120.433594 C 213.050781 121.476562 213.398438 122.726562 213.46875 124.054688 C 213.523438 125.128906 213.410156 126.183594 212.855469 127.167969 C 212.835938 125.457031 212.921875 123.753906 212.292969 122.121094 C 211.628906 120.410156 210.164062 119.375 209.035156 117.988281 C 207.554688 119.40625 206.179688 120.78125 204.996094 122.421875 C 206.140625 122.96875 207.386719 123.027344 208.398438 123.726562 C 181.871094 124.539062 155.339844 125.347656 128.808594 126.160156 C 141.0625 126.21875 153.316406 126.210938 165.570312 126.222656 C 177.835938 126.226562 190.101562 126.25 202.46875 126.265625 C 202.195312 127 201.984375 127.566406 201.753906 128.191406 C 204.78125 128.609375 207.710938 128.722656 210.597656 129.15625 C 210.59375 129.238281 210.589844 129.316406 210.585938 129.398438 C 191.136719 130.21875 171.6875 131.039062 152.242188 131.859375 C 167.703125 131.734375 183.15625 131.804688 198.753906 131.839844 C 198.519531 132.246094 198.390625 132.472656 198.246094 132.722656 C 201.097656 133.046875 203.910156 132.914062 206.691406 133.21875 C 206.6875 133.300781 206.6875 133.378906 206.683594 133.460938 C 187.125 134.261719 167.5625 135.066406 148.003906 135.867188 C 163.1875 135.980469 178.359375 135.957031 193.535156 136.011719 C 193.566406 136.105469 193.589844 136.199219 193.621094 136.296875 C 190.832031 138.058594 188.039062 139.820312 185.039062 141.710938 C 190.625 141.785156 195.953125 141.855469 201.28125 141.925781 C 201.285156 142 201.285156 142.074219 201.289062 142.148438 C 200.917969 142.207031 200.550781 142.300781 200.179688 142.316406 C 198.738281 142.390625 197.300781 142.441406 195.863281 142.492188 C 189.929688 142.714844 184 142.917969 178.070312 143.148438 C 170.804688 143.425781 163.542969 143.726562 156.277344 144.011719 C 150.027344 144.257812 143.773438 144.492188 137.519531 144.730469 C 137.519531 144.746094 137.519531 144.761719 137.519531 144.777344 L 180.339844 144.777344 C 180.1875 145.003906 180.128906 145.132812 180.035156 145.21875 C 178.191406 147 176.953125 149.132812 176.390625 151.636719 C 176.261719 152.210938 175.898438 152.226562 175.460938 152.242188 C 173.703125 152.304688 171.949219 152.378906 170.199219 152.453125 C 163.8125 152.730469 157.429688 153.023438 151.042969 153.285156 C 143.78125 153.589844 136.515625 153.867188 129.253906 154.164062 C 127.214844 154.25 125.175781 154.355469 123.132812 154.453125 C 123.132812 154.5 123.132812 154.542969 123.132812 154.589844 L 174.355469 154.589844 C 173.6875 155.375 173.347656 156.207031 172.296875 156.269531 C 170.441406 156.378906 168.585938 156.542969 166.730469 156.675781 C 163.578125 156.90625 160.425781 157.113281 157.273438 157.359375 C 152.867188 157.707031 148.460938 158.082031 144.929688 158.375 C 152.558594 158.375 161.054688 158.375 169.554688 158.375 C 169.730469 158.375 169.90625 158.390625 170.078125 158.40625 C 170.101562 158.410156 170.125 158.453125 170.140625 158.480469 C 170.15625 158.511719 170.164062 158.542969 170.199219 158.648438 C 169.679688 159.070312 169.140625 159.515625 168.597656 159.953125 C 165.878906 162.117188 163.136719 164.257812 160.441406 166.453125 C 157.910156 168.511719 155.855469 171.011719 154.140625 173.773438 C 153.683594 174.507812 153.132812 174.761719 152.367188 174.832031 C 150.097656 175.042969 147.816406 175.199219 145.648438 176.007812 C 145.421875 176.089844 145.167969 176.09375 144.921875 176.117188 C 141.5625 176.394531 138.203125 176.679688 134.84375 176.941406 C 131.277344 177.222656 127.703125 177.464844 124.132812 177.746094 C 122.039062 177.910156 119.945312 178.117188 117.851562 178.304688 C 121.980469 178.203125 126.109375 178.199219 130.238281 178.207031 C 134.355469 178.210938 138.46875 178.183594 142.828125 178.242188 C 142.378906 178.71875 142.097656 178.976562 141.859375 179.269531 C 141.371094 179.875 140.78125 180.1875 139.980469 180.234375 C 137.808594 180.367188 135.640625 180.574219 133.472656 180.742188 C 130.535156 180.96875 127.601562 181.183594 124.660156 181.40625 C 129.550781 181.574219 134.441406 181.414062 139.5 181.589844 C 137.523438 183.875 135.679688 185.992188 133.851562 188.117188 C 133.542969 188.480469 133.15625 188.53125 132.722656 188.558594 C 130.484375 188.714844 128.242188 188.886719 126.003906 189.058594 C 122.714844 189.308594 119.421875 189.570312 116.132812 189.828125 C 115.078125 189.910156 114.023438 190 112.96875 190.085938 C 112.972656 190.140625 112.972656 190.195312 112.976562 190.246094 L 131.738281 190.246094 C 129.738281 192.359375 127.621094 194.003906 125.402344 195.59375 C 124.378906 194.765625 123.488281 195.050781 122.636719 195.808594 C 122.324219 196.085938 121.976562 196.335938 121.648438 196.597656 C 120.949219 197.15625 120.179688 197.542969 119.277344 197.667969 C 118.617188 197.757812 117.96875 197.921875 117.316406 198.042969 C 115.457031 198.394531 114.539062 200.148438 114.894531 201.757812 C 115.082031 202.609375 115.390625 203.4375 115.71875 204.25 C 116.027344 205.03125 116.414062 205.785156 116.792969 206.539062 C 117.53125 208.011719 117.578125 209.488281 116.933594 211.011719 C 116.578125 211.851562 116.25 212.710938 116 213.585938 C 115.585938 215.074219 115.851562 216.375 117.214844 217.296875 C 117.503906 217.496094 117.785156 217.710938 118.054688 217.933594 C 118.191406 218.046875 118.289062 218.203125 118.480469 218.425781 C 116.148438 218.558594 113.957031 218.683594 111.769531 218.808594 C 112.226562 218.875 112.683594 218.875 113.140625 218.875 C 117.285156 218.851562 121.429688 218.828125 125.574219 218.800781 C 125.550781 218.46875 125.550781 218.160156 125.574219 217.84375 Z M 125.574219 217.84375 " fill-opacity="1" fill-rule="nonzero"/></g><path fill="#000000" d="M 236.058594 103.660156 C 236.058594 103.660156 230.351562 105.308594 230.652344 108.171875 C 230.953125 111.085938 236.472656 110.476562 236.777344 110.578125 C 237.078125 110.679688 238.699219 111.132812 239.050781 110.578125 C 239.40625 110.019531 239.914062 108.804688 239.914062 107.6875 C 239.914062 106.574219 240.316406 105.257812 239.40625 104.953125 C 238.5 104.644531 236.058594 103.660156 236.058594 103.660156 Z M 236.058594 103.660156 " fill-opacity="1" fill-rule="nonzero"/><path fill="#000000" d="M 185.257812 105.753906 C 186.308594 105.355469 202.535156 96.707031 204.132812 97.320312 C 205.730469 97.933594 204.132812 103.65625 204.132812 103.65625 C 204.132812 103.65625 199.726562 105.695312 198.964844 105.753906 C 198.207031 105.8125 193.648438 105.753906 193.648438 105.753906 Z M 185.257812 105.753906 " fill-opacity="1" fill-rule="nonzero"/><path fill="#000000" d="M 206.203125 110.792969 L 209.542969 116.839844 C 209.542969 116.839844 207.816406 120.523438 206.203125 120.898438 C 209.214844 122.871094 212.863281 129.941406 212.863281 129.941406 C 212.863281 129.941406 217.722656 131.691406 218.632812 129.332031 C 219.546875 126.976562 220.074219 121.578125 219.546875 119.828125 C 219.015625 118.082031 216.128906 113.746094 215.976562 113.289062 C 215.824219 112.832031 213.25 109.941406 212.980469 109.789062 C 212.707031 109.636719 211.722656 108.347656 210.8125 108.195312 C 209.898438 108.042969 206.203125 110.792969 206.203125 110.792969 Z M 206.203125 110.792969 " fill-opacity="1" fill-rule="nonzero"/><path fill="#000000" d="M 205.5 121.75 C 205.5 121.75 193.367188 137.425781 193.28125 136.496094 C 193.496094 137.320312 206.710938 138.535156 208.003906 138.535156 C 209.296875 138.535156 212.480469 137.925781 214 135.644531 C 215.519531 133.363281 219.085938 126.898438 218.253906 125.683594 C 217.417969 124.464844 217.570312 123.023438 215.367188 122.261719 C 213.164062 121.503906 205.5 121.75 205.5 121.75 Z M 205.5 121.75 " fill-opacity="1" fill-rule="nonzero"/><path fill="#000000" d="M 186.660156 140.675781 C 186.660156 140.675781 186.628906 140.695312 186.5625 140.730469 C 185.789062 141.203125 180.628906 144.347656 180.34375 144.757812 C 180.039062 145.199219 189.5 147.9375 191.929688 147.9375 C 194.359375 147.9375 199.671875 147.328125 201.445312 146.566406 C 203.21875 145.804688 206.855469 146.261719 206.203125 142.511719 C 205.546875 138.761719 207.183594 137.476562 204.585938 137.746094 C 201.984375 138.015625 201.964844 137.445312 201.800781 137.710938 C 201.636719 137.976562 186.660156 140.675781 186.660156 140.675781 Z M 186.660156 140.675781 " fill-opacity="1" fill-rule="nonzero"/><path fill="#000000" d="M 188.824219 165.84375 C 188.824219 165.84375 193.273438 163.402344 193.308594 162.894531 C 193.347656 162.386719 188.589844 155.1875 187.828125 154.933594 C 187.070312 154.683594 181.046875 153.007812 180.996094 153.261719 C 180.945312 153.515625 181.804688 155.84375 181.804688 156.65625 C 181.804688 157.46875 182.71875 159.699219 183.121094 161.121094 C 183.527344 162.542969 188.824219 165.84375 188.824219 165.84375 Z M 188.824219 165.84375 " fill-opacity="1" fill-rule="nonzero"/><path fill="#000000" d="M 207.324219 151.140625 L 201.847656 156.507812 C 201.847656 156.507812 193.851562 151.507812 193.851562 151.144531 C 193.851562 150.78125 195.113281 146.269531 195.621094 146.269531 C 196.128906 146.269531 201.550781 146.117188 202.457031 146.269531 C 203.367188 146.421875 206.25 147.535156 206.277344 147.945312 C 206.304688 148.34375 207.324219 151.140625 207.324219 151.140625 Z M 207.324219 151.140625 " fill-opacity="1" fill-rule="nonzero"/><path fill="#000000" d="M 228.128906 142.960938 C 228.046875 142.480469 227.398438 138.535156 227.398438 138.535156 L 235.332031 135.570312 C 235.332031 135.570312 234.613281 136.597656 234.6875 137.28125 C 234.761719 137.964844 235.183594 142.523438 234.953125 142.792969 C 234.722656 143.0625 232.445312 144.164062 231.839844 144.085938 C 231.230469 144.007812 228.128906 142.960938 228.128906 142.960938 Z M 228.128906 142.960938 " fill-opacity="1" fill-rule="nonzero"/><path fill="#000000" d="M 189.160156 184.097656 L 211.796875 171.386719 L 213.503906 175.835938 C 213.503906 175.835938 214.644531 179.597656 212.9375 180.855469 C 211.230469 182.109375 205.417969 185.417969 202.6875 185.53125 C 199.953125 185.644531 193.308594 186.214844 193.308594 186.214844 Z M 189.160156 184.097656 " fill-opacity="1" fill-rule="nonzero"/><g clip-path="url(#f20d5e3101)"><path fill="#000000" d="M 125.535156 217.765625 L 125.980469 218.78125 L 124.613281 218.78125 C 124.613281 218.78125 124.6875 218.058594 124.765625 218.039062 C 124.839844 218.019531 125.535156 217.765625 125.535156 217.765625 Z M 125.535156 217.765625 " fill-opacity="1" fill-rule="nonzero"/></g><g clip-path="url(#925d2c7b44)"><path fill="#000000" d="M 188.773438 217.84375 C 188.753906 217.8125 188.742188 217.789062 188.738281 217.765625 C 188.480469 216.441406 187.855469 215.449219 186.53125 214.914062 C 185.710938 214.585938 185.28125 213.878906 185.148438 212.945312 C 184.945312 211.4375 185.257812 210.054688 186.113281 208.847656 C 186.78125 207.914062 187.632812 207.109375 188.386719 206.234375 C 189.183594 205.304688 190.085938 204.433594 190.722656 203.402344 C 191.210938 202.613281 191.707031 201.992188 192.617188 201.761719 C 192.683594 201.746094 192.738281 201.695312 192.804688 201.667969 C 194.117188 201.050781 194.140625 200.953125 193.257812 199.816406 C 193.367188 199.726562 193.464844 199.625 193.578125 199.550781 C 196.042969 197.867188 198.53125 196.21875 200.972656 194.5 C 204.351562 192.125 207.933594 190.171875 211.867188 188.851562 C 214.097656 188.097656 216.242188 187.125 218.089844 185.601562 C 218.265625 185.457031 218.535156 185.359375 218.761719 185.351562 C 221.6875 185.292969 223.90625 183.875 225.710938 181.707031 C 226.410156 180.863281 227.285156 180.332031 228.242188 179.875 C 236.40625 175.980469 244.230469 171.511719 251.554688 166.191406 C 252 165.871094 252.4375 165.539062 252.949219 165.160156 C 250.308594 162.402344 247.765625 159.722656 246.273438 156.261719 C 246.5625 156.414062 246.78125 156.636719 246.980469 156.867188 C 248.113281 158.167969 249.226562 159.480469 250.371094 160.765625 C 252.957031 163.644531 255.945312 165.988281 259.421875 167.722656 C 262.941406 169.476562 266.421875 171.296875 269.886719 173.152344 C 270.769531 173.625 271.570312 174.296875 272.296875 174.996094 C 273.183594 175.847656 273.71875 177.335938 273.679688 178.390625 C 273.414062 177.941406 273.15625 177.570312 272.957031 177.167969 C 272.355469 175.960938 271.355469 175.460938 270.050781 175.460938 C 269.101562 175.464844 268.152344 175.425781 267.207031 175.457031 C 266.320312 175.484375 265.433594 175.582031 264.550781 175.652344 C 265.964844 176.335938 267.515625 176.316406 268.933594 176.808594 C 268.921875 176.875 268.914062 176.941406 268.90625 177.015625 C 257.617188 177.867188 246.335938 178.714844 235.046875 179.566406 C 240.261719 179.640625 245.480469 179.699219 250.699219 179.742188 C 255.886719 179.785156 261.070312 179.816406 266.253906 179.855469 C 266.257812 179.9375 266.261719 180.027344 266.265625 180.109375 C 257.816406 181.082031 249.367188 182.050781 240.917969 183.027344 C 240.925781 183.085938 240.929688 183.144531 240.933594 183.207031 L 253.675781 183.207031 C 253.421875 183.53125 253.136719 183.71875 252.832031 183.871094 C 248.957031 185.773438 245.082031 187.679688 241.195312 189.550781 C 240.8125 189.738281 240.3125 189.804688 239.890625 189.753906 C 239.222656 189.667969 238.738281 189.855469 238.320312 190.363281 C 237.234375 191.671875 235.847656 192.523438 234.230469 193.027344 C 233.699219 193.191406 233.167969 193.394531 232.667969 193.640625 C 231.042969 194.449219 230.644531 196.179688 231.769531 197.613281 C 232.132812 198.078125 232.582031 198.488281 233.046875 198.855469 C 233.652344 199.335938 234.292969 199.773438 234.945312 200.1875 C 236.582031 201.226562 237.851562 202.597656 238.808594 204.285156 C 239.609375 205.6875 240.5 207.03125 241.347656 208.410156 C 241.398438 208.488281 241.410156 208.597656 241.476562 208.8125 C 225.722656 210.03125 210.019531 211.242188 194.320312 212.453125 C 194.976562 212.523438 195.628906 212.546875 196.28125 212.519531 C 198.914062 212.410156 201.542969 212.277344 204.175781 212.167969 C 208.210938 212 212.246094 211.839844 216.28125 211.6875 C 221.335938 211.492188 226.386719 211.292969 231.441406 211.121094 C 236.355469 210.953125 241.269531 210.835938 246.1875 210.648438 C 247.160156 210.609375 248.136719 210.402344 249.085938 210.175781 C 249.835938 209.992188 249.960938 209.605469 249.636719 208.914062 C 249.246094 208.089844 248.664062 207.4375 247.796875 207.121094 C 246.726562 206.726562 246.113281 205.941406 245.628906 204.953125 C 244.855469 203.371094 244.640625 201.667969 244.441406 199.957031 C 244.300781 198.742188 244.253906 197.519531 244.15625 196.21875 C 245.03125 195.921875 245.820312 195.648438 246.609375 195.382812 C 248.25 194.832031 248.261719 194.816406 248.007812 193.1875 C 248 193.152344 248.023438 193.117188 248.054688 193.011719 C 249.488281 192.714844 250.964844 192.417969 252.4375 192.113281 C 259.480469 190.660156 266.507812 189.121094 273.332031 186.816406 C 275.855469 185.964844 278.320312 184.941406 280.777344 183.910156 C 282.507812 183.179688 283.550781 181.796875 283.914062 179.941406 C 284.167969 178.652344 284.269531 177.339844 283.871094 176.078125 C 283.230469 174.074219 282.613281 172.050781 281.785156 170.121094 C 279.21875 164.121094 275.074219 159.347656 269.933594 155.433594 C 267.84375 153.839844 265.601562 152.445312 263.429688 150.957031 C 263.089844 150.726562 262.699219 150.550781 262.484375 150.160156 C 264.632812 150.867188 266.429688 152.226562 268.371094 153.269531 C 270.265625 151.378906 272.21875 149.703125 273.496094 147.421875 C 274.046875 146.445312 274.910156 145.769531 275.953125 145.351562 C 276.667969 145.066406 277.394531 144.78125 278.140625 144.613281 C 281.082031 143.957031 284.035156 143.328125 286.988281 142.730469 C 290.042969 142.113281 292.835938 140.996094 295.109375 138.78125 C 295.164062 138.726562 295.265625 138.722656 295.496094 138.644531 C 294.449219 140.457031 292.914062 141.457031 291.214844 142.304688 C 291.460938 144.214844 292.277344 145.867188 293.1875 147.574219 C 288.511719 148.175781 283.988281 148.753906 279.464844 149.335938 C 279.464844 149.394531 279.472656 149.457031 279.476562 149.515625 L 294.949219 149.515625 C 295.152344 149.984375 295.328125 150.382812 295.527344 150.832031 C 287.769531 151.5625 280.15625 152.285156 272.539062 153.003906 C 273.0625 153.0625 273.589844 153.0625 274.113281 153.0625 C 277.871094 153.058594 281.632812 153.058594 285.390625 153.058594 C 289.042969 153.058594 292.695312 153.050781 296.347656 153.066406 C 296.710938 153.070312 297.214844 153.082031 297.417969 153.304688 C 298.160156 154.117188 298.800781 155.019531 299.597656 156.03125 C 292.132812 156.769531 284.886719 157.492188 277.640625 158.207031 C 278.101562 158.300781 278.5625 158.300781 279.015625 158.300781 C 286.5 158.3125 293.980469 158.296875 301.460938 158.355469 C 303.320312 158.367188 304.933594 157.832031 306.308594 156.652344 C 307.398438 155.714844 308.5 154.753906 309.414062 153.65625 C 311.320312 151.359375 313.164062 149.007812 314.929688 146.601562 C 317.148438 143.570312 319.558594 140.769531 322.785156 138.757812 C 323.199219 138.5 323.554688 138.148438 323.925781 137.824219 C 324.734375 137.121094 324.96875 136.269531 324.558594 135.261719 C 324.34375 134.746094 324.074219 134.238281 323.925781 133.707031 C 323.417969 131.863281 322.042969 131.230469 320.328125 131.035156 C 320.292969 131.03125 320.261719 131.015625 320.226562 131.015625 C 319.410156 130.90625 319.066406 131.085938 318.691406 131.804688 C 318.597656 131.984375 318.515625 132.175781 318.445312 132.332031 C 317.050781 132.660156 316.835938 132.890625 316.699219 134.230469 C 316.660156 134.613281 316.601562 135.007812 316.644531 135.386719 C 316.828125 137.113281 316.140625 138.453125 314.859375 139.542969 C 314.433594 139.910156 314.050781 140.339844 313.585938 140.640625 C 312.261719 141.5 310.902344 142.304688 309.5625 143.136719 C 307.921875 144.15625 306.289062 145.183594 304.652344 146.195312 C 304.332031 146.390625 303.992188 146.546875 303.542969 146.789062 C 303.335938 145.957031 303.117188 145.257812 302.984375 144.546875 C 302.480469 141.832031 301.671875 139.226562 300.257812 136.84375 C 299.859375 136.175781 299.773438 135.515625 299.792969 134.746094 C 299.867188 131.875 299.707031 129.039062 297.867188 126.609375 C 297.8125 126.539062 297.824219 126.417969 297.804688 126.320312 C 300.027344 125.828125 301.535156 127.117188 302.949219 128.429688 C 303.707031 127.929688 303.726562 127.9375 304.226562 126.816406 C 304.558594 126.074219 304.945312 125.4375 305.84375 125.429688 C 305.945312 125.15625 305.972656 124.851562 306.132812 124.734375 C 306.324219 124.59375 306.636719 124.613281 306.902344 124.558594 C 306.996094 124.105469 307.082031 123.707031 307.167969 123.289062 C 307.371094 123.28125 307.507812 123.253906 307.640625 123.269531 C 309.207031 123.433594 309.226562 123.402344 308.929688 121.792969 C 308.785156 121.007812 308.503906 120.230469 308.722656 119.371094 C 309.457031 119.253906 309.589844 118.691406 309.71875 118.078125 C 309.855469 117.433594 310.085938 116.804688 310.304688 116.175781 C 310.511719 115.582031 310.808594 115.011719 310.976562 114.410156 C 311.132812 113.871094 311.351562 113.476562 311.894531 113.230469 C 312.726562 112.851562 313.058594 112.117188 312.945312 111.234375 C 312.886719 110.753906 312.785156 110.242188 312.539062 109.839844 C 312.03125 109.003906 311.496094 108.160156 310.828125 107.449219 C 307.855469 104.277344 304.007812 103.410156 299.875 103.632812 C 297.5 103.757812 295.140625 104.226562 292.777344 104.539062 C 289.480469 104.972656 286.183594 105.40625 282.882812 105.839844 C 286.050781 105.945312 289.203125 105.917969 292.355469 105.949219 C 295.515625 105.980469 298.675781 105.664062 301.835938 105.796875 C 301.839844 105.882812 301.847656 105.964844 301.855469 106.050781 C 296.628906 106.757812 291.402344 107.457031 286.179688 108.164062 C 288.730469 108.1875 291.269531 108.113281 293.855469 108.1875 C 293.542969 109.390625 293.152344 110.460938 293.015625 111.5625 C 292.84375 112.972656 292.335938 114.5 293.800781 115.71875 C 293.214844 116.335938 292.714844 116.921875 292.144531 117.425781 C 291.59375 117.910156 290.894531 118.035156 290.167969 117.976562 C 289.75 117.941406 289.464844 117.773438 289.328125 117.324219 C 288.699219 115.242188 287.339844 113.6875 285.582031 112.511719 C 283.875 111.371094 282.378906 110.058594 281.078125 108.453125 C 279.726562 106.777344 277.917969 105.5625 276.121094 104.394531 C 274.304688 103.214844 272.714844 101.8125 271.292969 100.1875 C 270.582031 99.371094 269.742188 98.660156 268.925781 97.949219 C 268.375 97.46875 267.695312 97.277344 266.964844 97.347656 C 266.265625 97.417969 265.574219 97.53125 264.875 97.585938 C 261.933594 97.820312 258.992188 98.027344 256.054688 98.261719 C 251.960938 98.589844 247.867188 98.945312 243.773438 99.265625 C 238.980469 99.640625 234.179688 99.992188 229.386719 100.363281 C 225.074219 100.683594 220.773438 101.039062 216.46875 101.378906 C 213.636719 101.605469 210.808594 101.824219 207.972656 102.046875 C 207.972656 102.082031 207.976562 102.117188 207.976562 102.152344 C 226.753906 102.238281 245.527344 102.328125 264.300781 102.417969 C 264.304688 102.503906 264.308594 102.589844 264.3125 102.679688 C 251.398438 103.707031 238.464844 104.496094 225.546875 105.574219 L 248.441406 105.574219 C 248.449219 105.695312 248.46875 105.742188 248.453125 105.753906 C 248.320312 105.867188 248.183594 105.976562 248.042969 106.082031 C 245.792969 107.800781 243.234375 108.769531 240.492188 109.394531 C 238.375 109.878906 236.296875 110.523438 234.203125 111.113281 C 233.304688 111.367188 232.726562 111.96875 232.691406 112.921875 C 232.636719 114.570312 232.527344 116.234375 232.667969 117.875 C 232.839844 119.949219 234.304688 120.675781 236.179688 119.769531 C 236.898438 119.421875 237.597656 119.027344 238.269531 118.671875 C 239.601562 119.375 240.191406 119.324219 241.285156 118.398438 C 241.628906 118.101562 241.996094 117.800781 242.257812 117.4375 C 243.09375 116.265625 243.925781 115.089844 244.683594 113.871094 C 245.042969 113.296875 245.460938 112.933594 246.101562 112.722656 C 247.433594 112.28125 248.734375 111.742188 250.058594 111.292969 C 251.75 110.714844 253.433594 110.097656 255.160156 109.65625 C 256.789062 109.242188 258.480469 109.089844 260.121094 108.714844 C 261.6875 108.351562 263.230469 107.875 264.773438 107.402344 C 266.433594 106.890625 267.152344 107.089844 268.101562 108.515625 C 268.585938 109.242188 269.039062 110.007812 269.398438 110.804688 C 269.699219 111.46875 270.113281 111.617188 270.796875 111.585938 C 272.375 111.519531 273.957031 111.539062 275.539062 111.550781 C 275.933594 111.550781 276.332031 111.652344 276.730469 111.710938 C 276.722656 111.757812 276.71875 111.808594 276.707031 111.855469 C 268.75 112.605469 260.792969 113.347656 252.835938 114.097656 C 252.839844 114.164062 252.839844 114.238281 252.84375 114.304688 L 271.359375 114.304688 C 272.394531 116.628906 273.867188 118.554688 275.398438 120.433594 C 276.25 121.476562 276.597656 122.726562 276.667969 124.054688 C 276.722656 125.128906 276.609375 126.183594 276.054688 127.167969 C 276.035156 125.457031 276.121094 123.753906 275.492188 122.121094 C 274.828125 120.410156 273.363281 119.375 272.234375 117.988281 C 270.753906 119.40625 269.378906 120.78125 268.195312 122.421875 C 269.339844 122.96875 270.585938 123.027344 271.597656 123.726562 C 245.070312 124.539062 218.539062 125.347656 192.007812 126.160156 C 204.261719 126.21875 216.515625 126.210938 228.769531 126.222656 C 241.035156 126.226562 253.300781 126.25 265.667969 126.265625 C 265.394531 127 265.183594 127.566406 264.953125 128.191406 C 267.980469 128.609375 270.910156 128.722656 273.796875 129.15625 C 273.796875 129.238281 273.789062 129.316406 273.785156 129.398438 C 254.335938 130.21875 234.886719 131.039062 215.441406 131.859375 C 230.902344 131.734375 246.355469 131.804688 261.953125 131.839844 C 261.71875 132.246094 261.589844 132.472656 261.445312 132.722656 C 264.296875 133.046875 267.109375 132.914062 269.890625 133.21875 C 269.886719 133.300781 269.886719 133.378906 269.882812 133.460938 C 250.324219 134.261719 230.761719 135.066406 211.203125 135.867188 C 226.386719 135.980469 241.558594 135.957031 256.734375 136.011719 C 256.765625 136.105469 256.789062 136.199219 256.820312 136.296875 C 254.03125 138.058594 251.238281 139.820312 248.238281 141.710938 C 253.824219 141.785156 259.152344 141.855469 264.480469 141.925781 C 264.484375 142 264.484375 142.074219 264.488281 142.148438 C 264.117188 142.207031 263.75 142.300781 263.378906 142.316406 C 261.9375 142.390625 260.5 142.441406 259.0625 142.492188 C 253.128906 142.714844 247.199219 142.917969 241.269531 143.148438 C 234.003906 143.425781 226.742188 143.726562 219.476562 144.011719 C 213.226562 144.257812 206.972656 144.492188 200.71875 144.730469 C 200.71875 144.746094 200.71875 144.761719 200.71875 144.777344 L 243.539062 144.777344 C 243.386719 145.003906 243.328125 145.132812 243.234375 145.21875 C 241.390625 147 240.152344 149.132812 239.589844 151.636719 C 239.460938 152.210938 239.097656 152.226562 238.660156 152.242188 C 236.902344 152.304688 235.148438 152.378906 233.398438 152.453125 C 227.011719 152.730469 220.628906 153.023438 214.242188 153.285156 C 206.980469 153.589844 199.714844 153.867188 192.453125 154.164062 C 190.414062 154.25 188.375 154.355469 186.332031 154.453125 C 186.332031 154.5 186.332031 154.542969 186.332031 154.589844 L 237.554688 154.589844 C 236.886719 155.375 236.546875 156.207031 235.496094 156.269531 C 233.640625 156.378906 231.785156 156.542969 229.929688 156.675781 C 226.777344 156.90625 223.625 157.113281 220.472656 157.359375 C 216.066406 157.707031 211.660156 158.082031 208.128906 158.375 C 215.757812 158.375 224.253906 158.375 232.753906 158.375 C 232.929688 158.375 233.105469 158.390625 233.277344 158.40625 C 233.300781 158.410156 233.324219 158.453125 233.339844 158.480469 C 233.355469 158.511719 233.363281 158.542969 233.398438 158.648438 C 232.878906 159.070312 232.339844 159.515625 231.796875 159.953125 C 229.078125 162.117188 226.335938 164.257812 223.640625 166.453125 C 221.109375 168.511719 219.054688 171.011719 217.339844 173.773438 C 216.882812 174.507812 216.332031 174.761719 215.566406 174.832031 C 213.296875 175.042969 211.015625 175.199219 208.847656 176.007812 C 208.621094 176.089844 208.367188 176.09375 208.121094 176.117188 C 204.761719 176.394531 201.402344 176.679688 198.042969 176.941406 C 194.476562 177.222656 190.902344 177.464844 187.332031 177.746094 C 185.238281 177.910156 183.144531 178.117188 181.050781 178.304688 C 185.179688 178.203125 189.308594 178.199219 193.4375 178.207031 C 197.554688 178.210938 201.667969 178.183594 206.027344 178.242188 C 205.578125 178.71875 205.296875 178.976562 205.058594 179.269531 C 204.570312 179.875 203.980469 180.1875 203.179688 180.234375 C 201.007812 180.367188 198.839844 180.574219 196.671875 180.742188 C 193.734375 180.96875 190.800781 181.183594 187.859375 181.40625 C 192.75 181.574219 197.640625 181.414062 202.699219 181.589844 C 200.722656 183.875 198.878906 185.992188 197.050781 188.117188 C 196.742188 188.480469 196.355469 188.53125 195.921875 188.558594 C 193.683594 188.714844 191.441406 188.886719 189.203125 189.058594 C 185.914062 189.308594 182.621094 189.570312 179.332031 189.828125 C 178.277344 189.910156 177.222656 190 176.167969 190.085938 C 176.171875 190.140625 176.171875 190.195312 176.175781 190.246094 L 194.9375 190.246094 C 192.9375 192.359375 190.820312 194.003906 188.601562 195.59375 C 187.578125 194.765625 186.6875 195.050781 185.835938 195.808594 C 185.523438 196.085938 185.175781 196.335938 184.847656 196.597656 C 184.148438 197.15625 183.378906 197.542969 182.476562 197.667969 C 181.816406 197.757812 181.167969 197.921875 180.515625 198.042969 C 178.65625 198.394531 177.738281 200.148438 178.09375 201.757812 C 178.28125 202.609375 178.589844 203.4375 178.917969 204.25 C 179.226562 205.03125 179.613281 205.785156 179.992188 206.539062 C 180.730469 208.011719 180.777344 209.488281 180.132812 211.011719 C 179.777344 211.851562 179.449219 212.710938 179.199219 213.585938 C 178.785156 215.074219 179.050781 216.375 180.414062 217.296875 C 180.703125 217.496094 180.984375 217.710938 181.253906 217.933594 C 181.390625 218.046875 181.488281 218.203125 181.679688 218.425781 C 179.347656 218.558594 177.15625 218.683594 174.96875 218.808594 C 175.429688 218.875 175.882812 218.875 176.339844 218.875 C 180.484375 218.851562 184.628906 218.828125 188.773438 218.800781 C 188.75 218.46875 188.75 218.160156 188.773438 217.84375 Z M 188.773438 217.84375 " fill-opacity="1" fill-rule="nonzero"/></g><path fill="#000000" d="M 299.257812 103.660156 C 299.257812 103.660156 293.550781 105.308594 293.851562 108.171875 C 294.152344 111.085938 299.671875 110.476562 299.976562 110.578125 C 300.277344 110.679688 301.898438 111.132812 302.25 110.578125 C 302.605469 110.019531 303.113281 108.804688 303.113281 107.6875 C 303.113281 106.574219 303.515625 105.257812 302.605469 104.953125 C 301.699219 104.644531 299.257812 103.660156 299.257812 103.660156 Z M 299.257812 103.660156 " fill-opacity="1" fill-rule="nonzero"/><path fill="#000000" d="M 248.457031 105.753906 C 249.507812 105.355469 265.734375 96.707031 267.332031 97.320312 C 268.929688 97.933594 267.332031 103.65625 267.332031 103.65625 C 267.332031 103.65625 262.925781 105.695312 262.164062 105.753906 C 261.40625 105.8125 256.847656 105.753906 256.847656 105.753906 Z M 248.457031 105.753906 " fill-opacity="1" fill-rule="nonzero"/><path fill="#000000" d="M 269.402344 110.792969 L 272.742188 116.839844 C 272.742188 116.839844 271.015625 120.523438 269.402344 120.898438 C 272.414062 122.871094 276.0625 129.941406 276.0625 129.941406 C 276.0625 129.941406 280.921875 131.691406 281.832031 129.332031 C 282.746094 126.976562 283.273438 121.578125 282.746094 119.828125 C 282.214844 118.082031 279.328125 113.746094 279.175781 113.289062 C 279.023438 112.832031 276.449219 109.941406 276.179688 109.789062 C 275.90625 109.636719 274.921875 108.347656 274.011719 108.195312 C 273.097656 108.042969 269.402344 110.792969 269.402344 110.792969 Z M 269.402344 110.792969 " fill-opacity="1" fill-rule="nonzero"/><path fill="#000000" d="M 268.699219 121.75 C 268.699219 121.75 256.566406 137.425781 256.480469 136.496094 C 256.695312 137.320312 269.910156 138.535156 271.203125 138.535156 C 272.496094 138.535156 275.679688 137.925781 277.199219 135.644531 C 278.71875 133.363281 282.285156 126.898438 281.453125 125.683594 C 280.617188 124.464844 280.769531 123.023438 278.566406 122.261719 C 276.363281 121.503906 268.699219 121.75 268.699219 121.75 Z M 268.699219 121.75 " fill-opacity="1" fill-rule="nonzero"/><path fill="#000000" d="M 249.859375 140.675781 C 249.859375 140.675781 249.828125 140.695312 249.761719 140.730469 C 248.988281 141.203125 243.828125 144.347656 243.542969 144.757812 C 243.238281 145.199219 252.699219 147.9375 255.128906 147.9375 C 257.558594 147.9375 262.871094 147.328125 264.644531 146.566406 C 266.417969 145.804688 270.054688 146.261719 269.402344 142.511719 C 268.746094 138.761719 270.382812 137.476562 267.785156 137.746094 C 265.183594 138.015625 265.164062 137.445312 265 137.710938 C 264.835938 137.976562 249.859375 140.675781 249.859375 140.675781 Z M 249.859375 140.675781 " fill-opacity="1" fill-rule="nonzero"/><path fill="#000000" d="M 252.023438 165.84375 C 252.023438 165.84375 256.472656 163.402344 256.507812 162.894531 C 256.546875 162.386719 251.789062 155.1875 251.027344 154.933594 C 250.269531 154.683594 244.246094 153.007812 244.195312 153.261719 C 244.144531 153.515625 245.003906 155.84375 245.003906 156.65625 C 245.003906 157.46875 245.917969 159.699219 246.320312 161.121094 C 246.726562 162.542969 252.023438 165.84375 252.023438 165.84375 Z M 252.023438 165.84375 " fill-opacity="1" fill-rule="nonzero"/><path fill="#000000" d="M 270.523438 151.140625 L 265.046875 156.507812 C 265.046875 156.507812 257.050781 151.507812 257.050781 151.144531 C 257.050781 150.78125 258.3125 146.269531 258.820312 146.269531 C 259.328125 146.269531 264.75 146.117188 265.65625 146.269531 C 266.566406 146.421875 269.449219 147.535156 269.476562 147.945312 C 269.503906 148.34375 270.523438 151.140625 270.523438 151.140625 Z M 270.523438 151.140625 " fill-opacity="1" fill-rule="nonzero"/><path fill="#000000" d="M 291.328125 142.960938 C 291.246094 142.480469 290.597656 138.535156 290.597656 138.535156 L 298.53125 135.570312 C 298.53125 135.570312 297.8125 136.597656 297.886719 137.28125 C 297.960938 137.964844 298.382812 142.523438 298.152344 142.792969 C 297.921875 143.0625 295.644531 144.164062 295.039062 144.085938 C 294.429688 144.007812 291.328125 142.960938 291.328125 142.960938 Z M 291.328125 142.960938 " fill-opacity="1" fill-rule="nonzero"/><path fill="#000000" d="M 252.359375 184.097656 L 274.996094 171.386719 L 276.703125 175.835938 C 276.703125 175.835938 277.84375 179.597656 276.136719 180.855469 C 274.429688 182.109375 268.617188 185.417969 265.886719 185.53125 C 263.152344 185.644531 256.507812 186.214844 256.507812 186.214844 Z M 252.359375 184.097656 " fill-opacity="1" fill-rule="nonzero"/><g clip-path="url(#4926497bb3)"><path fill="#000000" d="M 188.734375 217.765625 L 189.179688 218.78125 L 187.8125 218.78125 C 187.8125 218.78125 187.886719 218.058594 187.964844 218.039062 C 188.039062 218.019531 188.734375 217.765625 188.734375 217.765625 Z M 188.734375 217.765625 " fill-opacity="1" fill-rule="nonzero"/></g><g fill="#000000" fill-opacity="1"><g transform="translate(134.559686, 283.628242)"><g><path d="M 4.15625 -9.46875 L 5.390625 -9.46875 L 9.265625 0 L 8.328125 0 L 7.40625 -2.265625 L 2.140625 -2.265625 L 1.203125 0 L 0.265625 0 Z M 7.0625 -3.078125 L 4.796875 -8.6875 L 4.75 -8.6875 L 2.46875 -3.078125 Z M 7.0625 -3.078125 "/></g></g></g><g fill="#000000" fill-opacity="1"><g transform="translate(150.182564, 283.628242)"><g><path d="M 3.796875 -8.65625 L 0.265625 -8.65625 L 0.265625 -9.46875 L 8.234375 -9.46875 L 8.234375 -8.65625 L 4.703125 -8.65625 L 4.703125 0 L 3.796875 0 Z M 3.796875 -8.65625 "/></g></g></g><g fill="#000000" fill-opacity="1"><g transform="translate(164.764132, 283.628242)"><g><path d="M 1.359375 -9.46875 L 2.25 -9.46875 L 2.25 -5.3125 L 8.203125 -5.3125 L 8.203125 -9.46875 L 9.09375 -9.46875 L 9.09375 0 L 8.203125 0 L 8.203125 -4.5 L 2.25 -4.5 L 2.25 0 L 1.359375 0 Z M 1.359375 -9.46875 "/></g></g></g><g fill="#000000" fill-opacity="1"><g transform="translate(181.293085, 283.628242)"><g><path d="M 1.359375 -9.46875 L 2.25 -9.46875 L 2.25 -0.8125 L 8.234375 -0.8125 L 8.234375 0 L 1.359375 0 Z M 1.359375 -9.46875 "/></g></g></g><g fill="#000000" fill-opacity="1"><g transform="translate(195.874654, 283.628242)"><g><path d="M 1.359375 -9.46875 L 8.1875 -9.46875 L 8.1875 -8.65625 L 2.25 -8.65625 L 2.25 -5.265625 L 7.421875 -5.265625 L 7.421875 -4.453125 L 2.25 -4.453125 L 2.25 -0.8125 L 8.1875 -0.8125 L 8.1875 0 L 1.359375 0 Z M 1.359375 -9.46875 "/></g></g></g><g fill="#000000" fill-opacity="1"><g transform="translate(211.024204, 283.628242)"><g><path d="M 3.796875 -8.65625 L 0.265625 -8.65625 L 0.265625 -9.46875 L 8.234375 -9.46875 L 8.234375 -8.65625 L 4.703125 -8.65625 L 4.703125 0 L 3.796875 0 Z M 3.796875 -8.65625 "/></g></g></g><g fill="#000000" fill-opacity="1"><g transform="translate(225.605773, 283.628242)"><g><path d="M 0.8125 -0.8125 L 3.375 -0.8125 L 3.375 -8.65625 L 0.8125 -8.65625 L 0.8125 -9.46875 L 6.84375 -9.46875 L 6.84375 -8.65625 L 4.28125 -8.65625 L 4.28125 -0.8125 L 6.84375 -0.8125 L 6.84375 0 L 0.8125 0 Z M 0.8125 -0.8125 "/></g></g></g><g fill="#000000" fill-opacity="1"><g transform="translate(239.348879, 283.628242)"><g><path d="M 5.609375 0.140625 C 4.890625 0.140625 4.238281 0.0195312 3.65625 -0.21875 C 3.082031 -0.46875 2.59375 -0.804688 2.1875 -1.234375 C 1.789062 -1.671875 1.484375 -2.1875 1.265625 -2.78125 C 1.054688 -3.382812 0.953125 -4.035156 0.953125 -4.734375 C 0.953125 -5.441406 1.054688 -6.09375 1.265625 -6.6875 C 1.484375 -7.28125 1.789062 -7.789062 2.1875 -8.21875 C 2.59375 -8.65625 3.082031 -8.992188 3.65625 -9.234375 C 4.238281 -9.484375 4.890625 -9.609375 5.609375 -9.609375 C 6.171875 -9.609375 6.671875 -9.535156 7.109375 -9.390625 C 7.554688 -9.253906 7.945312 -9.078125 8.28125 -8.859375 C 8.613281 -8.640625 8.894531 -8.382812 9.125 -8.09375 C 9.351562 -7.8125 9.539062 -7.523438 9.6875 -7.234375 C 9.84375 -6.953125 9.953125 -6.679688 10.015625 -6.421875 C 10.085938 -6.171875 10.125 -5.957031 10.125 -5.78125 L 9.234375 -5.78125 C 9.234375 -5.820312 9.207031 -5.925781 9.15625 -6.09375 C 9.113281 -6.269531 9.039062 -6.46875 8.9375 -6.6875 C 8.832031 -6.90625 8.691406 -7.132812 8.515625 -7.375 C 8.335938 -7.625 8.113281 -7.847656 7.84375 -8.046875 C 7.582031 -8.253906 7.265625 -8.425781 6.890625 -8.5625 C 6.523438 -8.695312 6.097656 -8.765625 5.609375 -8.765625 C 5.015625 -8.765625 4.484375 -8.660156 4.015625 -8.453125 C 3.554688 -8.242188 3.164062 -7.957031 2.84375 -7.59375 C 2.53125 -7.238281 2.289062 -6.816406 2.125 -6.328125 C 1.957031 -5.835938 1.875 -5.304688 1.875 -4.734375 C 1.875 -4.171875 1.957031 -3.640625 2.125 -3.140625 C 2.289062 -2.648438 2.53125 -2.222656 2.84375 -1.859375 C 3.164062 -1.503906 3.554688 -1.222656 4.015625 -1.015625 C 4.484375 -0.804688 5.015625 -0.703125 5.609375 -0.703125 C 6.097656 -0.703125 6.523438 -0.769531 6.890625 -0.90625 C 7.265625 -1.039062 7.582031 -1.207031 7.84375 -1.40625 C 8.113281 -1.613281 8.335938 -1.835938 8.515625 -2.078125 C 8.691406 -2.328125 8.832031 -2.5625 8.9375 -2.78125 C 9.039062 -3 9.113281 -3.191406 9.15625 -3.359375 C 9.207031 -3.523438 9.234375 -3.632812 9.234375 -3.6875 L 10.125 -3.6875 C 10.125 -3.507812 10.085938 -3.289062 10.015625 -3.03125 C 9.953125 -2.78125 9.84375 -2.507812 9.6875 -2.21875 C 9.539062 -1.9375 9.351562 -1.65625 9.125 -1.375 C 8.894531 -1.09375 8.613281 -0.835938 8.28125 -0.609375 C 7.945312 -0.390625 7.554688 -0.207031 7.109375 -0.0625 C 6.671875 0.0703125 6.171875 0.140625 5.609375 0.140625 Z M 5.609375 0.140625 "/></g></g></g><g fill="#000000" fill-opacity="1"><g transform="translate(256.432297, 283.628242)"><g><path d="M 4.859375 0.140625 C 4.328125 0.140625 3.828125 0.0820312 3.359375 -0.03125 C 2.898438 -0.15625 2.492188 -0.335938 2.140625 -0.578125 C 1.796875 -0.816406 1.519531 -1.109375 1.3125 -1.453125 C 1.113281 -1.804688 1.015625 -2.21875 1.015625 -2.6875 L 1.015625 -3.234375 L 1.90625 -3.234375 L 1.90625 -2.6875 C 1.90625 -2.332031 1.984375 -2.023438 2.140625 -1.765625 C 2.296875 -1.515625 2.507812 -1.304688 2.78125 -1.140625 C 3.050781 -0.984375 3.363281 -0.863281 3.71875 -0.78125 C 4.070312 -0.707031 4.453125 -0.671875 4.859375 -0.671875 C 5.265625 -0.671875 5.644531 -0.707031 6 -0.78125 C 6.363281 -0.863281 6.675781 -0.976562 6.9375 -1.125 C 7.207031 -1.28125 7.421875 -1.476562 7.578125 -1.71875 C 7.742188 -1.957031 7.828125 -2.242188 7.828125 -2.578125 C 7.828125 -2.921875 7.726562 -3.195312 7.53125 -3.40625 C 7.34375 -3.613281 7.09375 -3.78125 6.78125 -3.90625 C 6.476562 -4.03125 6.128906 -4.125 5.734375 -4.1875 C 5.347656 -4.25 4.945312 -4.316406 4.53125 -4.390625 C 4.125 -4.460938 3.722656 -4.546875 3.328125 -4.640625 C 2.941406 -4.742188 2.59375 -4.890625 2.28125 -5.078125 C 1.976562 -5.265625 1.734375 -5.515625 1.546875 -5.828125 C 1.359375 -6.140625 1.265625 -6.535156 1.265625 -7.015625 C 1.265625 -7.421875 1.351562 -7.785156 1.53125 -8.109375 C 1.707031 -8.429688 1.953125 -8.703125 2.265625 -8.921875 C 2.585938 -9.140625 2.960938 -9.304688 3.390625 -9.421875 C 3.828125 -9.546875 4.296875 -9.609375 4.796875 -9.609375 C 5.304688 -9.609375 5.773438 -9.550781 6.203125 -9.4375 C 6.640625 -9.320312 7.015625 -9.148438 7.328125 -8.921875 C 7.648438 -8.691406 7.898438 -8.40625 8.078125 -8.0625 C 8.253906 -7.71875 8.34375 -7.316406 8.34375 -6.859375 L 8.34375 -6.59375 L 7.453125 -6.59375 L 7.453125 -6.859375 C 7.453125 -7.203125 7.382812 -7.492188 7.25 -7.734375 C 7.113281 -7.984375 6.925781 -8.1875 6.6875 -8.34375 C 6.457031 -8.5 6.179688 -8.613281 5.859375 -8.6875 C 5.535156 -8.757812 5.179688 -8.796875 4.796875 -8.796875 C 4.421875 -8.796875 4.070312 -8.753906 3.75 -8.671875 C 3.4375 -8.597656 3.160156 -8.488281 2.921875 -8.34375 C 2.679688 -8.195312 2.492188 -8.007812 2.359375 -7.78125 C 2.222656 -7.5625 2.15625 -7.304688 2.15625 -7.015625 C 2.15625 -6.660156 2.25 -6.375 2.4375 -6.15625 C 2.625 -5.9375 2.867188 -5.757812 3.171875 -5.625 C 3.484375 -5.5 3.832031 -5.394531 4.21875 -5.3125 C 4.613281 -5.238281 5.015625 -5.164062 5.421875 -5.09375 C 5.835938 -5.03125 6.238281 -4.945312 6.625 -4.84375 C 7.019531 -4.75 7.367188 -4.609375 7.671875 -4.421875 C 7.984375 -4.234375 8.234375 -3.992188 8.421875 -3.703125 C 8.617188 -3.410156 8.71875 -3.035156 8.71875 -2.578125 C 8.71875 -2.128906 8.613281 -1.734375 8.40625 -1.390625 C 8.207031 -1.054688 7.929688 -0.773438 7.578125 -0.546875 C 7.234375 -0.328125 6.828125 -0.15625 6.359375 -0.03125 C 5.890625 0.0820312 5.390625 0.140625 4.859375 0.140625 Z M 4.859375 0.140625 "/></g></g></g></svg>